<svg width="33" height="32" viewBox="0 0 33 32" fill="none" xmlns="http://www.w3.org/2000/svg">
<path d="M32.0961 16.001C32.0961 24.8379 24.9331 32.001 16.0961 32.001C7.25983 32.001 0.0960083 24.8379 0.0960083 16.001C0.0960083 7.16478 7.25983 0.000961304 16.0961 0.000961304C24.9331 0.000961304 32.0961 7.16478 32.0961 16.001ZM23.721 22.3483L17.352 7.02104C17.1701 6.57904 16.8066 6.34512 16.3654 6.34512C15.9234 6.34512 15.5333 6.57904 15.3515 7.02104L8.36119 23.8331H10.7524L13.5196 16.9015L21.7775 23.5729C22.1096 23.8414 22.3493 23.9628 22.6607 23.9628C23.2846 23.9628 23.8299 23.4951 23.8299 22.82C23.8299 22.7102 23.7911 22.5358 23.7208 22.3483H23.721ZM16.3654 9.77501L20.5059 19.9942L14.2517 15.0677L16.3654 9.77501Z" fill="#31EEE3"/>
</svg>
