<svg width="32" height="32" viewBox="0 0 32 32" fill="none" xmlns="http://www.w3.org/2000/svg">
<g clip-path="url(#clip0_2_166)">
<path d="M12 18C12 17.7348 12.1054 17.4804 12.2929 17.2929C12.4804 17.1054 12.7348 17 13 17H19C19.2652 17 19.5196 17.1054 19.7071 17.2929C19.8946 17.4804 20 17.7348 20 18C20 18.2652 19.8946 18.5196 19.7071 18.7071C19.5196 18.8947 19.2652 19 19 19H13C12.7348 19 12.4804 18.8947 12.2929 18.7071C12.1054 18.5196 12 18.2652 12 18ZM7.708 8.29201C7.61502 8.19904 7.50464 8.12528 7.38316 8.07497C7.26168 8.02465 7.13148 7.99875 7 7.99875C6.86851 7.99875 6.73831 8.02465 6.61683 8.07497C6.49535 8.12528 6.38497 8.19904 6.292 8.29201C6.19902 8.38499 6.12527 8.49537 6.07495 8.61684C6.02463 8.73832 5.99873 8.86852 5.99873 9.00001C5.99873 9.1315 6.02463 9.2617 6.07495 9.38318C6.12527 9.50466 6.19902 9.61504 6.292 9.70801L9.586 13L6.292 16.292C6.19902 16.385 6.12527 16.4954 6.07495 16.6168C6.02463 16.7383 5.99873 16.8685 5.99873 17C5.99873 17.1315 6.02463 17.2617 6.07495 17.3832C6.12527 17.5047 6.19902 17.615 6.292 17.708C6.47977 17.8958 6.73445 18.0013 7 18.0013C7.13148 18.0013 7.26168 17.9754 7.38316 17.9251C7.50464 17.8747 7.61502 17.801 7.708 17.708L11.708 13.708C11.8011 13.6151 11.875 13.5048 11.9254 13.3833C11.9758 13.2618 12.0018 13.1315 12.0018 13C12.0018 12.8685 11.9758 12.7382 11.9254 12.6167C11.875 12.4953 11.8011 12.3849 11.708 12.292L7.708 8.29201V8.29201Z" fill="#31EEE3"/>
<path d="M4 2C2.93913 2 1.92172 2.42143 1.17157 3.17157C0.421427 3.92172 0 4.93913 0 6L0 26C0 27.0609 0.421427 28.0783 1.17157 28.8284C1.92172 29.5786 2.93913 30 4 30H28C29.0609 30 30.0783 29.5786 30.8284 28.8284C31.5786 28.0783 32 27.0609 32 26V6C32 4.93913 31.5786 3.92172 30.8284 3.17157C30.0783 2.42143 29.0609 2 28 2H4ZM28 4C28.5304 4 29.0391 4.21071 29.4142 4.58579C29.7893 4.96086 30 5.46957 30 6V26C30 26.5304 29.7893 27.0391 29.4142 27.4142C29.0391 27.7893 28.5304 28 28 28H4C3.46957 28 2.96086 27.7893 2.58579 27.4142C2.21071 27.0391 2 26.5304 2 26V6C2 5.46957 2.21071 4.96086 2.58579 4.58579C2.96086 4.21071 3.46957 4 4 4H28Z" fill="#31EEE3"/>
</g>
<defs>
<clipPath id="clip0_2_166">
<rect width="32" height="32" fill="white"/>
</clipPath>
</defs>
</svg>
