<svg width="42" height="42" viewBox="0 0 42 42" fill="none" xmlns="http://www.w3.org/2000/svg">
<path d="M21.0001 41.69C16.908 41.69 12.9078 40.4766 9.50532 38.2031C6.10287 35.9297 3.45098 32.6983 1.885 28.9177C0.319023 25.1371 -0.0907078 20.9771 0.70762 16.9636C1.50595 12.9501 3.47648 9.26352 6.37003 6.36997C9.26358 3.47642 12.9502 1.50589 16.9636 0.707559C20.9771 -0.0907688 25.1372 0.318962 28.9178 1.88494C32.6984 3.45092 35.9297 6.10281 38.2032 9.50526C40.4766 12.9077 41.6901 16.9079 41.6901 21C41.6848 26.4857 39.5032 31.7452 35.6243 35.6242C31.7453 39.5032 26.4858 41.6847 21.0001 41.69ZM21.0001 2.31001C17.3035 2.31001 13.69 3.40616 10.6165 5.45984C7.54291 7.51352 5.14736 10.4325 3.73276 13.8477C2.31816 17.2628 1.94803 21.0207 2.66919 24.6462C3.39035 28.2718 5.1704 31.602 7.78424 34.2158C10.3981 36.8297 13.7283 38.6097 17.3538 39.3309C20.9793 40.052 24.7373 39.6819 28.1524 38.2673C31.5676 36.8527 34.4866 34.4572 36.5402 31.3836C38.5939 28.3101 39.6901 24.6965 39.6901 21C39.6821 16.0455 37.7105 11.2963 34.2071 7.79294C30.7038 4.28961 25.9545 2.31794 21.0001 2.31001V2.31001Z" fill="#31EEE3"/>
<path d="M15.87 25.69V17.9L13.17 23.08H11.52L8.91004 17.93V25.69H7.23004V15.29H9.23004L12.35 21.49L15.53 15.29H17.53V25.69H15.87Z" fill="#31EEE3"/>
<path d="M20.0001 25.69V15.29H26.3101V16.76H21.8101V19.76H25.4801V21.23H21.8101V25.69H20.0001Z" fill="#31EEE3"/>
<path d="M33.6801 25.69L32.8001 23.08H28.6501L27.8101 25.69H26.0001L29.8001 15.29H31.8001L35.5501 25.69H33.6801ZM29.0901 21.69H32.3801L30.7301 16.89L29.0901 21.69Z" fill="#31EEE3"/>
</svg>
