<svg width="28" height="32" viewBox="0 0 28 32" fill="none" xmlns="http://www.w3.org/2000/svg">
<path d="M13.8619 25.051L6.02438 20.5219V11.4781L13.8619 6.94898L21.6993 11.4781V20.5219L13.8619 25.051ZM7.46908 19.6912L13.8619 23.3824L20.2546 19.6912V12.3088L13.8619 8.6176L7.46908 12.3088V19.6912Z" fill="#31EEE3"/>
<path d="M13.8619 32L0 24.0036V7.99639L13.8619 0L27.7237 7.99639V24.0036L13.8619 32ZM1.4447 23.1657L13.8619 30.3386L26.279 23.1657V8.83431L13.8619 1.6614L1.4447 8.83431V23.1657Z" fill="#31EEE3"/>
<path d="M26.6345 7.7951L13.4962 15.3775L14.2183 16.6287L27.3566 9.04637L26.6345 7.7951Z" fill="#31EEE3"/>
<path d="M1.11422 7.73872L0.391869 8.99561L13.5892 16.5803L14.3115 15.3234L1.11422 7.73872Z" fill="#31EEE3"/>
<path d="M14.5842 16H13.1395V31.1693H14.5842V16Z" fill="#31EEE3"/>
</svg>
