<svg width="33" height="32" viewBox="0 0 33 32" fill="none" xmlns="http://www.w3.org/2000/svg">
<path d="M27.1656 21.5298L22.2271 18.7668V13.3281C22.2301 13.2221 22.204 13.1173 22.1518 13.025C22.0995 12.9328 22.0229 12.8565 21.9305 12.8046L16.6954 9.89622C16.6069 9.84517 16.5066 9.81829 16.4045 9.81829C16.3024 9.81829 16.2021 9.84517 16.1137 9.89622L10.8786 12.8046C10.7918 12.8561 10.7198 12.9293 10.6698 13.017C10.6199 13.1047 10.5936 13.2039 10.5936 13.3049V18.7552L5.64348 21.5298C5.55579 21.5818 5.48331 21.6559 5.43328 21.7447C5.38326 21.8335 5.35746 21.9339 5.35846 22.0358V28.4343C5.35805 28.5368 5.38473 28.6376 5.43581 28.7265C5.48688 28.8153 5.56053 28.8891 5.64929 28.9404L10.8844 31.9244C10.9718 31.9725 11.0697 31.9985 11.1694 32C11.2709 31.9976 11.3705 31.9717 11.4603 31.9244L16.4103 29.0916L21.3779 31.8604C21.4653 31.9085 21.5631 31.9345 21.6629 31.936C21.7611 31.9363 21.8575 31.9102 21.9421 31.8604L27.1772 28.952C27.2671 28.9015 27.3419 28.828 27.394 28.7391C27.4461 28.6502 27.4737 28.549 27.4739 28.4459V22.0475C27.4746 21.9413 27.4463 21.8369 27.392 21.7456C27.3376 21.6543 27.2593 21.5797 27.1656 21.5298ZM11.7744 14.3286L15.8461 16.5797V21.0528L11.7744 18.7901V14.3286ZM21.0812 18.7785L17.0095 21.0528V16.5855L21.0812 14.317V18.7785ZM17.0095 23.0363L21.0812 25.3631V30.3946L17.0095 28.1144V23.0363ZM17.5912 22.0475L21.6629 19.7906L25.7347 22.0591L21.6978 24.3393L17.5912 22.0475ZM16.4278 11.0887L20.4588 13.3281L16.3871 15.5734L12.3677 13.3398L16.4278 11.0887ZM6.53926 23.048L10.611 25.3281V30.4237L6.53926 28.0969V23.048ZM11.1927 24.316L7.12094 22.0591L11.1927 19.7964L15.2179 22.0417L11.1927 24.316ZM15.8461 28.0969L11.7744 30.4237V25.3223L15.8461 23.0363V28.0969ZM26.3163 28.0969L22.2446 30.3597V25.3456L26.3163 23.0538V28.0969ZM32.8253 15.3C32.8878 16.663 32.4814 18.0062 31.6738 19.1059C30.8663 20.2056 29.7063 20.9953 28.3871 21.3437L28.0323 20.2326C29.1124 19.9591 30.0639 19.3187 30.7239 18.421C31.3839 17.5234 31.7114 16.4242 31.6503 15.3116C31.6503 11.3562 28.3929 10.3732 26.9969 10.1289C26.8474 10.1032 26.7138 10.0201 26.6247 9.89726C26.5356 9.77447 26.498 9.62172 26.5199 9.4716C26.3803 7.66839 25.5369 6.37707 24.2572 5.98153C23.723 5.83605 23.1569 5.85912 22.6363 6.04757C22.1158 6.23602 21.6661 6.58066 21.3488 7.03436C21.2862 7.11977 21.2014 7.18646 21.1037 7.22724C21.006 7.26803 20.899 7.28135 20.7942 7.26579C20.6895 7.25023 20.5909 7.20636 20.5093 7.13893C20.4276 7.07149 20.3659 6.98305 20.3309 6.88313C19.8955 5.61328 19.1821 4.45668 18.2426 3.49776C17.1919 2.3798 15.8192 1.6167 14.3151 1.31442C12.811 1.01213 11.25 1.18565 9.84901 1.81089C7.3827 2.8521 5.45152 5.88264 5.45152 8.65725C5.45141 8.97015 5.46889 9.28281 5.50387 9.59375C5.51912 9.7343 5.48265 9.87559 5.40129 9.99121C5.31993 10.1068 5.19924 10.1889 5.0618 10.222C3.91172 10.4488 2.88226 11.0834 2.16295 12.009C1.44364 12.9345 1.08289 14.0888 1.1471 15.2593C1.1471 15.3756 1.1471 15.4862 1.1471 15.5967C1.21813 16.7208 1.65427 17.791 2.38922 18.6446C3.12417 19.4982 4.11772 20.0885 5.21885 20.3257L4.9571 21.4542C3.61104 21.1561 2.39912 20.4267 1.50562 19.3767C0.612125 18.3268 0.085919 17.0138 0.00701356 15.6374C0.00701356 15.5094 0.00701356 15.3756 0.00701356 15.2418C-0.0580539 13.9032 0.331135 12.5818 1.11143 11.4922C1.89172 10.4025 3.01733 9.60847 4.30562 9.23892C4.30562 9.04697 4.30562 8.8492 4.30562 8.65725C4.30562 5.37658 6.49854 1.96794 9.41275 0.734785C11.0269 0.0191665 12.8228 -0.179942 14.5545 0.16473C16.2862 0.509402 17.869 1.381 19.0861 2.66014C19.9324 3.5233 20.6126 4.53481 21.0929 5.64415C21.567 5.23978 22.1336 4.95866 22.7424 4.82574C23.3512 4.69282 23.9834 4.71219 24.5829 4.88215C26.2698 5.37658 27.3983 6.92966 27.6542 9.07605C29.2945 9.45996 32.8137 10.8153 32.8137 15.3116L32.8253 15.3Z" fill="#31EEE3"/>
</svg>
