<svg width="32" height="32" viewBox="0 0 32 32" fill="none" xmlns="http://www.w3.org/2000/svg">
<g clip-path="url(#clip0_2_179)">
<path d="M16 8C16.2652 8 16.5196 8.10536 16.7071 8.29289C16.8946 8.48043 17 8.73478 17 9V12C17 12.2652 16.8946 12.5196 16.7071 12.7071C16.5196 12.8946 16.2652 13 16 13C15.7348 13 15.4804 12.8946 15.2929 12.7071C15.1054 12.5196 15 12.2652 15 12V9C15 8.73478 15.1054 8.48043 15.2929 8.29289C15.4804 8.10536 15.7348 8 16 8V8ZM7.464 11.464C7.65153 11.2765 7.90584 11.1712 8.171 11.1712C8.43616 11.1712 8.69047 11.2765 8.878 11.464L10.708 13.292C10.801 13.385 10.8747 13.4954 10.925 13.6168C10.9754 13.7383 11.0013 13.8685 11.0013 14C11.0013 14.1315 10.9754 14.2617 10.925 14.3832C10.8747 14.5046 10.801 14.615 10.708 14.708C10.615 14.801 10.5046 14.8747 10.3832 14.925C10.2617 14.9754 10.1315 15.0013 10 15.0013C9.86851 15.0013 9.73831 14.9754 9.61683 14.925C9.49535 14.8747 9.38498 14.801 9.292 14.708L7.464 12.878C7.27653 12.6905 7.17121 12.4362 7.17121 12.171C7.17121 11.9058 7.27653 11.6515 7.464 11.464V11.464ZM4 20C4 19.7348 4.10536 19.4804 4.29289 19.2929C4.48043 19.1054 4.73478 19 5 19H8.172C8.43722 19 8.69157 19.1054 8.87911 19.2929C9.06664 19.4804 9.172 19.7348 9.172 20C9.172 20.2652 9.06664 20.5196 8.87911 20.7071C8.69157 20.8946 8.43722 21 8.172 21H5C4.73478 21 4.48043 20.8946 4.29289 20.7071C4.10536 20.5196 4 20.2652 4 20ZM23 20C23 19.7348 23.1054 19.4804 23.2929 19.2929C23.4804 19.1054 23.7348 19 24 19H27C27.2652 19 27.5196 19.1054 27.7071 19.2929C27.8946 19.4804 28 19.7348 28 20C28 20.2652 27.8946 20.5196 27.7071 20.7071C27.5196 20.8946 27.2652 21 27 21H24C23.7348 21 23.4804 20.8946 23.2929 20.7071C23.1054 20.5196 23 20.2652 23 20ZM24.508 11.508C24.3694 11.3702 24.1841 11.2895 23.9888 11.2821C23.7935 11.2747 23.6026 11.3411 23.454 11.468L15.094 18.62C14.8992 18.7841 14.7411 18.9873 14.6297 19.2164C14.5184 19.4455 14.4564 19.6954 14.4477 19.9499C14.4391 20.2045 14.4839 20.458 14.5794 20.6941C14.6749 20.9303 14.8189 21.1437 15.0021 21.3207C15.1852 21.4977 15.4035 21.6342 15.6428 21.7216C15.882 21.8089 16.137 21.845 16.3911 21.8276C16.6452 21.8102 16.8928 21.7396 17.1179 21.6205C17.3431 21.5014 17.5407 21.3363 17.698 21.136L24.566 12.542C24.6855 12.3924 24.7456 12.2041 24.7349 12.0129C24.7242 11.8218 24.6434 11.6413 24.508 11.506V11.508Z" fill="#31EEE3"/>
<path fill-rule="evenodd" clip-rule="evenodd" d="M1.06157e-05 20C0.00210136 17.6716 0.512356 15.3717 1.49515 13.2609C2.47795 11.1501 3.90961 9.27921 5.69018 7.77887C7.47075 6.27853 9.55733 5.1849 11.8042 4.57431C14.0512 3.96372 16.4043 3.8509 18.6993 4.24371C20.9943 4.63652 23.176 5.52551 25.0919 6.8486C27.0078 8.1717 28.6119 9.89703 29.7922 11.9041C30.9724 13.9112 31.7004 16.1518 31.9252 18.4693C32.1501 20.7868 31.8664 23.1255 31.094 25.322C30.21 27.828 27.404 28.526 25.23 27.822C22.618 26.976 18.95 26 16 26C13.052 26 9.38001 26.976 6.77001 27.822C4.59601 28.526 1.79001 27.828 0.906011 25.322C0.304294 23.6122 -0.00207884 21.8126 1.06157e-05 20V20ZM16 6.00001C13.7608 5.99943 11.554 6.536 9.56503 7.56467C7.57604 8.59335 5.86281 10.0841 4.56914 11.9119C3.27547 13.7396 2.4391 15.851 2.13022 18.0689C1.82135 20.2867 2.04898 22.5463 2.79401 24.658C3.20001 25.808 4.64001 26.41 6.15401 25.918C8.79401 25.066 12.716 24 16 24C19.284 24 23.208 25.064 25.846 25.92C27.36 26.41 28.8 25.808 29.206 24.658C29.951 22.5463 30.1787 20.2867 29.8698 18.0689C29.5609 15.851 28.7246 13.7396 27.4309 11.9119C26.1372 10.0841 24.424 8.59335 22.435 7.56467C20.446 6.536 18.2393 5.99943 16 6.00001V6.00001Z" fill="#31EEE3"/>
</g>
<defs>
<clipPath id="clip0_2_179">
<rect width="32" height="32" fill="white"/>
</clipPath>
</defs>
</svg>
