<svg width="32" height="12" viewBox="0 0 32 12" fill="none" xmlns="http://www.w3.org/2000/svg">
<path d="M2.41492 3.61999C2.3526 3.61999 2.33702 3.58883 2.36818 3.54209L2.69537 3.12142C2.72653 3.07468 2.80443 3.04352 2.86675 3.04352H8.42891C8.49123 3.04352 8.50681 3.09026 8.47565 3.137L8.21079 3.54209C8.17963 3.58883 8.10173 3.63557 8.05498 3.63557L2.41492 3.61999Z" fill="#31EEE3"/>
<path d="M0.0623213 5.05337C1.30012e-07 5.05337 -0.0155803 5.02221 0.0155802 4.97547L0.342766 4.5548C0.373927 4.50806 0.451828 4.4769 0.51415 4.4769H7.61876C7.68108 4.4769 7.71224 4.52364 7.69666 4.57038L7.57202 4.94431C7.55644 5.00663 7.49412 5.03779 7.4318 5.03779L0.0623213 5.05337Z" fill="#31EEE3"/>
<path d="M3.83277 6.48675C3.77045 6.48675 3.75487 6.44001 3.78603 6.39327L4.00415 6.00376C4.03531 5.95702 4.09763 5.91028 4.15995 5.91028H7.27601C7.33833 5.91028 7.36949 5.95702 7.36949 6.01934L7.33833 6.39327C7.33833 6.45559 7.27601 6.50233 7.22927 6.50233L3.83277 6.48675Z" fill="#31EEE3"/>
<path d="M20.0051 3.33953C19.0235 3.58881 18.3536 3.77578 17.3876 4.02506C17.1539 4.08738 17.1383 4.10296 16.9358 3.86926C16.7021 3.60439 16.5307 3.43301 16.2035 3.27721C15.2219 2.79422 14.2716 2.93444 13.3835 3.51091C12.324 4.19645 11.7787 5.20916 11.7943 6.47117C11.8099 7.71759 12.6668 8.74589 13.8976 8.91727C14.9571 9.0575 15.8452 8.68357 16.5463 7.88897C16.6865 7.71759 16.8111 7.53063 16.9669 7.3125C16.4061 7.3125 15.7049 7.3125 13.9599 7.3125C13.6328 7.3125 13.5549 7.10996 13.6639 6.84509C13.8665 6.36211 14.2404 5.55193 14.4585 5.14684C14.5053 5.05336 14.6143 4.89756 14.848 4.89756C15.6426 4.89756 18.5717 4.89756 20.5192 4.89756C20.4881 5.31823 20.4881 5.73889 20.4258 6.15956C20.2544 7.28134 19.8337 8.30964 19.1482 9.2133C18.0264 10.6934 16.5619 11.6127 14.7078 11.8619C13.1809 12.0645 11.7631 11.7685 10.5167 10.8336C9.36376 9.96115 8.70939 8.80821 8.53801 7.37482C8.33546 5.67657 8.83403 4.1497 9.86233 2.8098C10.9685 1.36083 12.4331 0.441596 14.2248 0.11441C15.6894 -0.150455 17.0916 0.0209287 18.3536 0.877844C19.1793 1.42315 19.7714 2.17101 20.1609 3.07466C20.2544 3.21489 20.1921 3.29279 20.0051 3.33953Z" fill="#31EEE3"/>
<path d="M25.1622 11.9554C23.7443 11.9243 22.4512 11.5192 21.3606 10.5844C20.4413 9.78978 19.8649 8.77707 19.6779 7.57738C19.3974 5.81681 19.8804 4.25878 20.9399 2.87214C22.0773 1.37643 23.4483 0.597415 25.3024 0.270229C26.8916 -0.0102158 28.3873 0.145587 29.7428 1.06482C30.9736 1.90616 31.737 3.04352 31.9396 4.53923C32.2044 6.64257 31.5968 8.3564 30.1478 9.82094C29.1195 10.8648 27.8575 11.5192 26.4086 11.8152C25.9879 11.8931 25.5672 11.9087 25.1622 11.9554ZM28.8703 5.66101C28.8547 5.45846 28.8547 5.30266 28.8235 5.14686C28.5431 3.60441 27.1253 2.73191 25.6451 3.07468C24.1962 3.40187 23.2614 4.3211 22.9186 5.78565C22.6381 7.00091 23.2302 8.23175 24.352 8.73032C25.2089 9.10425 26.0658 9.05751 26.8916 8.63684C28.1224 7.99805 28.7924 7.00091 28.8703 5.66101Z" fill="#31EEE3"/>
</svg>
