<svg width="32" height="32" viewBox="0 0 32 32" fill="none" xmlns="http://www.w3.org/2000/svg">
<g clip-path="url(#clip0_34_32)">
<path d="M4 2C2.93913 2 1.92172 2.42143 1.17157 3.17157C0.421427 3.92172 0 4.93913 0 6L0 26C0 27.0609 0.421427 28.0783 1.17157 28.8284C1.92172 29.5786 2.93913 30 4 30H28C29.0609 30 30.0783 29.5786 30.8284 28.8284C31.5786 28.0783 32 27.0609 32 26V6C32 4.93913 31.5786 3.92172 30.8284 3.17157C30.0783 2.42143 29.0609 2 28 2H4ZM28 4C28.5304 4 29.0391 4.21071 29.4142 4.58579C29.7893 4.96086 30 5.46957 30 6V26C30 26.5304 29.7893 27.0391 29.4142 27.4142C29.0391 27.7893 28.5304 28 28 28H4C3.46957 28 2.96086 27.7893 2.58579 27.4142C2.21071 27.0391 2 26.5304 2 26V6C2 5.46957 2.21071 4.96086 2.58579 4.58579C2.96086 4.21071 3.46957 4 4 4H28Z" fill="#31EEE3"/>
<path d="M7.52348 24.11C6.83415 24.11 6.24015 23.9963 5.74148 23.769C5.24282 23.5417 4.85415 23.208 4.57548 22.768C4.30415 22.328 4.15382 21.7817 4.12448 21.129C4.11715 20.8283 4.11348 20.5057 4.11348 20.161C4.11348 19.8163 4.11715 19.4863 4.12448 19.171C4.15382 18.533 4.30782 17.9903 4.58648 17.543C4.86515 17.0957 5.25382 16.7583 5.75248 16.531C6.25115 16.3037 6.84148 16.19 7.52348 16.19C8.00748 16.19 8.45482 16.2523 8.86548 16.377C9.27615 16.4943 9.63548 16.6703 9.94348 16.905C10.2515 17.1323 10.4898 17.411 10.6585 17.741C10.8345 18.0637 10.9262 18.4303 10.9335 18.841C10.9408 18.907 10.9188 18.962 10.8675 19.006C10.8235 19.05 10.7685 19.072 10.7025 19.072H9.21748C9.12215 19.072 9.04882 19.0537 8.99748 19.017C8.94615 18.973 8.90215 18.896 8.86548 18.786C8.76282 18.3973 8.59415 18.1333 8.35948 17.994C8.13215 17.8473 7.84982 17.774 7.51248 17.774C7.10915 17.774 6.79015 17.8877 6.55548 18.115C6.32082 18.335 6.19248 18.7053 6.17048 19.226C6.14848 19.8273 6.14848 20.4433 6.17048 21.074C6.19248 21.5947 6.32082 21.9687 6.55548 22.196C6.79015 22.416 7.10915 22.526 7.51248 22.526C7.84982 22.526 8.13582 22.4527 8.37048 22.306C8.60515 22.1593 8.77015 21.8953 8.86548 21.514C8.89482 21.404 8.93515 21.3307 8.98648 21.294C9.04515 21.25 9.12215 21.228 9.21748 21.228H10.7025C10.7685 21.228 10.8235 21.25 10.8675 21.294C10.9188 21.338 10.9408 21.393 10.9335 21.459C10.9262 21.8697 10.8345 22.24 10.6585 22.57C10.4898 22.8927 10.2515 23.1713 9.94348 23.406C9.63548 23.6333 9.27615 23.8093 8.86548 23.934C8.45482 24.0513 8.00748 24.11 7.52348 24.11ZM12.9151 24C12.8418 24 12.7758 23.9743 12.7171 23.923C12.6658 23.8643 12.6401 23.7983 12.6401 23.725V16.575C12.6401 16.4943 12.6658 16.4283 12.7171 16.377C12.7758 16.3257 12.8418 16.3 12.9151 16.3H14.1031C14.2278 16.3 14.3195 16.333 14.3781 16.399C14.4368 16.4577 14.4735 16.5053 14.4881 16.542L16.4241 20.007L18.3601 16.542C18.3821 16.5053 18.4188 16.4577 18.4701 16.399C18.5288 16.333 18.6205 16.3 18.7451 16.3H19.9221C20.0028 16.3 20.0688 16.3257 20.1201 16.377C20.1788 16.4283 20.2081 16.4943 20.2081 16.575V23.725C20.2081 23.7983 20.1788 23.8643 20.1201 23.923C20.0688 23.9743 20.0028 24 19.9221 24H18.6131C18.5325 24 18.4628 23.9743 18.4041 23.923C18.3528 23.8643 18.3271 23.7983 18.3271 23.725V19.6L17.0951 21.899C17.0585 21.965 17.0108 22.0237 16.9521 22.075C16.8935 22.1263 16.8128 22.152 16.7101 22.152H16.1381C16.0355 22.152 15.9548 22.1263 15.8961 22.075C15.8375 22.0237 15.7898 21.965 15.7531 21.899L14.5101 19.6V23.725C14.5101 23.7983 14.4845 23.8643 14.4331 23.923C14.3818 23.9743 14.3158 24 14.2351 24H12.9151ZM22.5745 24C22.4938 24 22.4278 23.9743 22.3765 23.923C22.3252 23.8643 22.2995 23.7983 22.2995 23.725V16.575C22.2995 16.4943 22.3252 16.4283 22.3765 16.377C22.4278 16.3257 22.4938 16.3 22.5745 16.3H25.4345C26.1532 16.3 26.7655 16.4173 27.2715 16.652C27.7775 16.8793 28.1662 17.2167 28.4375 17.664C28.7088 18.104 28.8555 18.6503 28.8775 19.303C28.8848 19.6257 28.8885 19.908 28.8885 20.15C28.8885 20.392 28.8848 20.6707 28.8775 20.986C28.8482 21.668 28.7015 22.2327 28.4375 22.68C28.1808 23.1273 27.8032 23.461 27.3045 23.681C26.8132 23.8937 26.2082 24 25.4895 24H22.5745ZM24.2795 22.416H25.4345C25.7498 22.416 26.0102 22.3683 26.2155 22.273C26.4282 22.1703 26.5858 22.0127 26.6885 21.8C26.7985 21.5873 26.8572 21.3087 26.8645 20.964C26.8792 20.7513 26.8865 20.5607 26.8865 20.392C26.8938 20.2233 26.8938 20.0547 26.8865 19.886C26.8865 19.7173 26.8792 19.5303 26.8645 19.325C26.8498 18.8263 26.7178 18.4633 26.4685 18.236C26.2265 18.0013 25.8635 17.884 25.3795 17.884H24.2795V22.416Z" fill="#31EEE3"/>
</g>
<defs>
<clipPath id="clip0_34_32">
<rect width="32" height="32" fill="white"/>
</clipPath>
</defs>
</svg>
