<svg width="32" height="32" viewBox="0 0 32 32" fill="none" xmlns="http://www.w3.org/2000/svg">
<path d="M7.14881 26.1312C6.02704 26.1269 4.92754 25.8177 3.96788 25.2368C3.00821 24.656 2.22448 23.8252 1.70049 22.8333C1.1765 21.8414 0.931952 20.7258 0.992998 19.6056C1.05404 18.4855 1.41839 17.4031 2.04707 16.474C2.67576 15.545 3.54513 14.8043 4.56224 14.3311C5.57935 13.8579 6.70593 13.6701 7.82153 13.7877C8.93712 13.9054 9.99977 14.324 10.8958 14.9989C11.7919 15.6737 12.4877 16.5795 12.9088 17.6192H13.9072L15.1872 16.3392C15.3071 16.22 15.4693 16.1531 15.6384 16.1531C15.8075 16.1531 15.9697 16.22 16.0896 16.3392L17.3696 17.6192H17.8048L19.0848 16.3392C19.2047 16.22 19.3669 16.1531 19.536 16.1531C19.7051 16.1531 19.8673 16.22 19.9872 16.3392L21.2672 17.6192H22.4512C22.6068 17.6194 22.7569 17.6763 22.8736 17.7792L24.7936 19.4624C24.9217 19.5736 25.0004 19.7311 25.0124 19.9003C25.0244 20.0696 24.9687 20.2366 24.8576 20.3648L23.4112 22.0544C23.3505 22.1235 23.2757 22.1787 23.1917 22.2162C23.1078 22.2538 23.0168 22.2728 22.9248 22.272H12.8768C12.4188 23.4153 11.6278 24.3945 10.6064 25.0827C9.58502 25.7708 8.38039 26.1361 7.14881 26.1312V26.1312ZM7.14881 15.04C6.24217 15.0391 5.35299 15.2893 4.57987 15.7629C3.80674 16.2365 3.17989 16.9149 2.76879 17.723C2.3577 18.5311 2.17844 19.4373 2.25089 20.341C2.32333 21.2448 2.64465 22.1108 3.17922 22.8431C3.71378 23.5754 4.44071 24.1453 5.2794 24.4897C6.11809 24.8341 7.03578 24.9394 7.9307 24.7941C8.82562 24.6488 9.66282 24.2585 10.3495 23.6665C11.0361 23.0744 11.5454 22.3038 11.8208 21.44C11.8631 21.3051 11.9488 21.1881 12.0645 21.107C12.1803 21.026 12.3196 20.9855 12.4608 20.992H22.528L23.3728 20.0128L22.0928 18.8992H20.896C20.8118 18.8997 20.7283 18.8835 20.6503 18.8517C20.5723 18.8198 20.5014 18.7729 20.4416 18.7136L19.4432 17.7152L18.4512 18.7136C18.3914 18.7729 18.3205 18.8198 18.2425 18.8517C18.1645 18.8835 18.081 18.8997 17.9968 18.8992H17.0368C16.9526 18.8997 16.8691 18.8835 16.7911 18.8517C16.7131 18.8198 16.6422 18.7729 16.5824 18.7136L15.5904 17.7152L14.592 18.7136C14.5322 18.7729 14.4613 18.8198 14.3833 18.8517C14.3053 18.8835 14.2218 18.8997 14.1376 18.8992H12.4288C12.2876 18.9057 12.1483 18.8652 12.0325 18.7842C11.9168 18.7031 11.8311 18.586 11.7888 18.4512C11.4768 17.4642 10.8592 16.6019 10.0252 15.9888C9.19119 15.3756 8.18393 15.0434 7.14881 15.04V15.04ZM5.45921 22.272C4.99818 22.272 4.54753 22.1352 4.16429 21.8789C3.78105 21.6227 3.48247 21.2585 3.30633 20.8324C3.1302 20.4064 3.08444 19.9376 3.17485 19.4855C3.26526 19.0335 3.48777 18.6184 3.81421 18.2928C4.14065 17.9673 4.55634 17.7459 5.00866 17.6568C5.46098 17.5676 5.92959 17.6147 6.35515 17.792C6.78072 17.9693 7.14411 18.2689 7.39932 18.6528C7.65452 19.0367 7.79008 19.4878 7.78881 19.9488C7.78711 20.5655 7.54093 21.1564 7.10423 21.5919C6.66753 22.0274 6.07595 22.272 5.45921 22.272V22.272ZM5.45921 18.8992C5.25162 18.8992 5.04869 18.9607 4.87608 19.0761C4.70348 19.1914 4.56895 19.3553 4.4895 19.5471C4.41006 19.7389 4.38928 19.95 4.42978 20.1536C4.47028 20.3572 4.57024 20.5442 4.71703 20.691C4.86382 20.8378 5.05084 20.9377 5.25444 20.9782C5.45804 21.0187 5.66908 20.9979 5.86087 20.9185C6.05266 20.839 6.21659 20.7045 6.33192 20.5319C6.44725 20.3593 6.50881 20.1564 6.50881 19.9488C6.50881 19.6704 6.39823 19.4034 6.20139 19.2066C6.00455 19.0098 5.73758 18.8992 5.45921 18.8992V18.8992Z" fill="#31EEE3"/>
<path d="M24.8512 15.04C23.6219 15.0465 22.4188 14.684 21.3977 13.9994C20.3765 13.3148 19.5842 12.3397 19.1232 11.2H18.1248L16.8448 12.48C16.7249 12.5992 16.5627 12.6661 16.3936 12.6661C16.2245 12.6661 16.0623 12.5992 15.9424 12.48L14.6624 11.2H14.2272L12.9472 12.48C12.8273 12.5992 12.6651 12.6661 12.496 12.6661C12.3269 12.6661 12.1647 12.5992 12.0448 12.48L10.7648 11.2H9.65762C9.50205 11.1998 9.3519 11.1429 9.23522 11.04L7.31522 9.3568C7.18714 9.24558 7.10845 9.08806 7.09645 8.91885C7.08445 8.74964 7.14012 8.58259 7.25122 8.4544L8.69762 6.7648C8.75831 6.69572 8.83316 6.64052 8.9171 6.60297C9.00103 6.56542 9.09207 6.5464 9.18402 6.5472H19.1232C19.5452 5.50994 20.241 4.60677 21.1362 3.93412C22.0315 3.26148 23.0927 2.84462 24.2064 2.72807C25.3201 2.61152 26.4446 2.79964 27.4597 3.27236C28.4749 3.74508 29.3426 4.48464 29.9701 5.41206C30.5977 6.33948 30.9616 7.41994 31.023 8.53807C31.0844 9.65619 30.8409 10.77 30.3186 11.7605C29.7963 12.7511 29.0147 13.5811 28.0574 14.1621C27.1001 14.7431 26.003 15.0532 24.8832 15.0592L24.8512 15.04ZM17.8624 9.92H19.5712C19.7124 9.91354 19.8517 9.95398 19.9675 10.035C20.0833 10.1161 20.169 10.2331 20.2112 10.368C20.5677 11.4833 21.311 12.4344 22.3071 13.0497C23.3032 13.6651 24.4864 13.9042 25.6432 13.7238C26.8001 13.5434 27.8544 12.9555 28.6159 12.0661C29.3773 11.1767 29.7958 10.0444 29.7958 8.8736C29.7958 7.70277 29.3773 6.57049 28.6159 5.6811C27.8544 4.79171 26.8001 4.20377 25.6432 4.0234C24.4864 3.84303 23.3032 4.08209 22.3071 4.69745C21.311 5.31281 20.5677 6.26394 20.2112 7.3792C20.169 7.51406 20.0833 7.63114 19.9675 7.71218C19.8517 7.79322 19.7124 7.83366 19.5712 7.8272H9.47202L8.62722 8.8064L9.90722 9.92H11.1104C11.1946 9.91951 11.2781 9.93566 11.3561 9.96751C11.4341 9.99936 11.505 10.0463 11.5648 10.1056L12.5632 11.104L13.5552 10.1056C13.615 10.0463 13.6859 9.99936 13.7639 9.96751C13.8419 9.93566 13.9254 9.91951 14.0096 9.92H14.9696C15.0538 9.91951 15.1373 9.93566 15.2153 9.96751C15.2933 9.99936 15.3642 10.0463 15.424 10.1056L16.416 11.104L17.4144 10.1056C17.4719 10.0436 17.541 9.99353 17.6179 9.95837C17.6948 9.92322 17.7779 9.90365 17.8624 9.9008V9.92ZM26.5408 11.2C26.0801 11.2 25.6297 11.0634 25.2466 10.8074C24.8635 10.5514 24.5649 10.1876 24.3886 9.7619C24.2122 9.33622 24.1661 8.86782 24.256 8.41592C24.3459 7.96402 24.5677 7.54893 24.8935 7.22312C25.2193 6.89732 25.6344 6.67545 26.0863 6.58556C26.5382 6.49568 27.0066 6.54181 27.4323 6.71813C27.858 6.89445 28.2218 7.19304 28.4778 7.57614C28.7338 7.95925 28.8704 8.40965 28.8704 8.8704C28.8654 9.48492 28.6177 10.0725 28.1813 10.5053C27.745 10.938 27.1554 11.1808 26.5408 11.1808V11.2ZM26.5408 7.8272C26.333 7.8272 26.1298 7.88893 25.957 8.00454C25.7843 8.12016 25.6498 8.28447 25.5705 8.47663C25.4913 8.66879 25.4709 8.88016 25.5119 9.08393C25.5529 9.28771 25.6535 9.47472 25.8009 9.62125C25.9484 9.76778 26.136 9.86723 26.34 9.90701C26.544 9.94678 26.7553 9.92508 26.9469 9.84466C27.1386 9.76423 27.3021 9.62871 27.4167 9.45526C27.5312 9.28182 27.5917 9.07826 27.5904 8.8704C27.5921 8.73149 27.5662 8.59363 27.5142 8.4648C27.4622 8.33598 27.3852 8.21876 27.2876 8.11993C27.1899 8.02111 27.0737 7.94265 26.9455 7.8891C26.8173 7.83556 26.6797 7.80799 26.5408 7.808V7.8272Z" fill="#31EEE3"/>
<path d="M30.4 29.44H1.60002C1.43028 29.44 1.2675 29.3726 1.14747 29.2525C1.02745 29.1325 0.960022 28.9697 0.960022 28.8V25.7984H2.24002V28.16H29.76V25.7984H31.04V28.8C31.04 28.9697 30.9726 29.1325 30.8526 29.2525C30.7325 29.3726 30.5698 29.44 30.4 29.44Z" fill="#31EEE3"/>
</svg>
