<svg width="32" height="32" viewBox="0 0 32 32" fill="none" xmlns="http://www.w3.org/2000/svg">
<path d="M7.14242 23.9808C6.02106 23.976 4.92207 23.6666 3.96289 23.0857C3.0037 22.5048 2.22037 21.6742 1.6966 20.6827C1.17284 19.6912 0.928312 18.5759 0.989161 17.4562C1.05001 16.3365 1.41395 15.2544 2.04208 14.3254C2.67021 13.3965 3.53894 12.6557 4.55542 12.1821C5.57191 11.7086 6.69795 11.5201 7.81323 11.6369C8.92851 11.7536 9.99111 12.1712 10.8875 12.845C11.7838 13.5188 12.4803 14.4235 12.9024 15.4624H13.9008L15.1808 14.1824C15.3007 14.0632 15.4629 13.9963 15.632 13.9963C15.8011 13.9963 15.9633 14.0632 16.0832 14.1824L17.3632 15.4624H17.7984L19.0784 14.1824C19.1379 14.1224 19.2087 14.0748 19.2867 14.0423C19.3647 14.0098 19.4483 13.9931 19.5328 13.9931C19.6173 13.9931 19.701 14.0098 19.779 14.0423C19.8569 14.0748 19.9277 14.1224 19.9872 14.1824L21.2672 15.4624H22.4512C22.6068 15.4626 22.757 15.5195 22.8736 15.6224L23.4304 16.1088L22.5856 17.0752L22.2144 16.7424H20.896C20.8118 16.7429 20.7283 16.7267 20.6503 16.6949C20.5723 16.663 20.5014 16.6161 20.4416 16.5568L19.4432 15.5648L18.4512 16.5568C18.3914 16.6161 18.3205 16.663 18.2425 16.6949C18.1645 16.7267 18.0811 16.7429 17.9968 16.7424H17.0304C16.8625 16.7417 16.7016 16.675 16.5824 16.5568L15.584 15.5648L14.592 16.5568C14.5322 16.6161 14.4613 16.663 14.3833 16.6949C14.3053 16.7267 14.2219 16.7429 14.1376 16.7424H12.4288C12.2885 16.7493 12.1497 16.7097 12.0341 16.6299C11.9184 16.5501 11.8322 16.4344 11.7888 16.3008C11.4324 15.1855 10.6891 14.2344 9.69297 13.619C8.69689 13.0037 7.51366 12.7646 6.3568 12.945C5.19994 13.1254 4.14565 13.7133 3.38419 14.6027C2.62272 15.4921 2.20423 16.6244 2.20423 17.7952C2.20423 18.966 2.62272 20.0983 3.38419 20.9877C4.14565 21.8771 5.19994 22.465 6.3568 22.6454C7.51366 22.8258 8.69689 22.5867 9.69297 21.9713C10.6891 21.356 11.4324 20.4048 11.7888 19.2896C11.8311 19.1547 11.9168 19.0377 12.0325 18.9566C12.1483 18.8756 12.2877 18.8351 12.4288 18.8416H18.2272V20.1216H12.8768C12.4184 21.2659 11.6264 22.2458 10.6038 22.9341C9.58113 23.6223 8.37509 23.987 7.14242 23.9808V23.9808ZM5.45922 20.1408C4.99847 20.1408 4.54807 20.0042 4.16497 19.7482C3.78187 19.4922 3.48328 19.1284 3.30695 18.7027C3.13063 18.277 3.0845 17.8086 3.17439 17.3567C3.26427 16.9048 3.48615 16.4897 3.81195 16.1639C4.13775 15.8381 4.55284 15.6162 5.00474 15.5264C5.45664 15.4365 5.92504 15.4826 6.35072 15.6589C6.7764 15.8352 7.14024 16.1338 7.39622 16.5169C7.6522 16.9 7.78882 17.3504 7.78882 17.8112C7.78376 18.4257 7.53609 19.0133 7.09975 19.4461C6.66341 19.8788 6.07376 20.1216 5.45922 20.1216V20.1408ZM5.45922 16.768C5.25136 16.768 5.04818 16.8297 4.87544 16.9453C4.7027 17.0609 4.56817 17.2253 4.48892 17.4174C4.40967 17.6096 4.38926 17.8209 4.43028 18.0247C4.47131 18.2285 4.57191 18.4155 4.71934 18.562C4.86677 18.7086 5.05439 18.808 5.25841 18.8478C5.46243 18.8876 5.67367 18.8659 5.86534 18.7854C6.05702 18.705 6.2205 18.5695 6.33505 18.396C6.44961 18.2226 6.51009 18.019 6.50882 17.8112C6.51052 17.6723 6.48462 17.5344 6.43263 17.4056C6.38064 17.2768 6.3036 17.1595 6.20597 17.0607C6.10833 16.9619 5.99205 16.8834 5.86387 16.8299C5.73568 16.7763 5.59814 16.7488 5.45922 16.7488V16.768Z" fill="#31EEE3"/>
<path d="M24.8513 13.4848C23.6219 13.4913 22.4189 13.1288 21.3977 12.4442C20.3766 11.7596 19.5843 10.7845 19.1233 9.6448H18.1249L16.8449 10.9248C16.7249 11.044 16.5627 11.1109 16.3937 11.1109C16.2246 11.1109 16.0624 11.044 15.9425 10.9248L14.6625 9.6448H14.2273L12.9473 10.9248C12.8273 11.044 12.6651 11.1109 12.4961 11.1109C12.327 11.1109 12.1648 11.044 12.0449 10.9248L10.7649 9.6448H9.65765C9.50291 9.64635 9.35285 9.59178 9.23525 9.4912L7.31525 7.8016C7.18907 7.69057 7.11163 7.53436 7.09965 7.36671C7.08768 7.19906 7.14213 7.03343 7.25125 6.9056L8.69765 5.216C8.75774 5.14575 8.83233 5.08935 8.9163 5.05068C9.00026 5.01201 9.09161 4.99199 9.18405 4.992H19.1233C19.5452 3.95474 20.241 3.05156 21.1363 2.37892C22.0315 1.70627 23.0927 1.28942 24.2064 1.17286C25.3202 1.05631 26.4446 1.24444 27.4598 1.71716C28.4749 2.18987 29.3426 2.92943 29.9702 3.85685C30.5977 4.78427 30.9616 5.86474 31.023 6.98286C31.0844 8.10098 30.8409 9.21478 30.3186 10.2053C29.7963 11.1959 29.0148 12.0259 28.0575 12.6069C27.1002 13.1879 26.003 13.498 24.8833 13.504L24.8513 13.4848ZM17.8625 8.32H19.5713C19.7124 8.31353 19.8518 8.35398 19.9675 8.43502C20.0833 8.51606 20.169 8.63314 20.2113 8.768C20.5677 9.88325 21.311 10.8344 22.3071 11.4497C23.3032 12.0651 24.4864 12.3042 25.6433 12.1238C26.8001 11.9434 27.8544 11.3555 28.6159 10.4661C29.3774 9.57671 29.7959 8.44443 29.7959 7.2736C29.7959 6.10276 29.3774 4.97049 28.6159 4.08109C27.8544 3.1917 26.8001 2.60377 25.6433 2.4234C24.4864 2.24302 23.3032 2.48209 22.3071 3.09745C21.311 3.71281 20.5677 4.66394 20.2113 5.7792C20.169 5.91405 20.0833 6.03113 19.9675 6.11217C19.8518 6.19321 19.7124 6.23366 19.5713 6.2272H9.47205L8.62725 7.2128L9.90725 8.32H11.1105C11.1951 8.32035 11.2789 8.3375 11.3569 8.37046C11.4349 8.40341 11.5056 8.45152 11.5649 8.512L12.5633 9.504L13.5553 8.512C13.6145 8.45152 13.6852 8.40341 13.7632 8.37046C13.8412 8.3375 13.925 8.32035 14.0097 8.32H14.9697C15.0543 8.32035 15.1381 8.3375 15.2161 8.37046C15.2941 8.40341 15.3648 8.45152 15.4241 8.512L16.4161 9.504L17.4145 8.512C17.5326 8.39141 17.6936 8.3224 17.8625 8.32ZM26.5409 9.6C26.0798 9.59999 25.6292 9.4632 25.2459 9.20694C24.8627 8.95067 24.5641 8.58646 24.388 8.16041C24.2118 7.73436 24.1661 7.26563 24.2565 6.81355C24.3469 6.36148 24.5694 5.9464 24.8959 5.62086C25.2223 5.29531 25.638 5.07394 26.0903 4.98478C26.5426 4.89562 27.0112 4.94266 27.4368 5.11997C27.8624 5.29727 28.2257 5.59686 28.481 5.9808C28.7362 6.36474 28.8717 6.81577 28.8705 7.2768C28.8688 7.89353 28.6226 8.48443 28.1859 8.91994C27.7492 9.35544 27.1576 9.6 26.5409 9.6V9.6ZM26.5409 6.2272C26.3333 6.2272 26.1303 6.28875 25.9577 6.40408C25.7851 6.51942 25.6506 6.68334 25.5711 6.87513C25.4917 7.06692 25.4709 7.27796 25.5114 7.48156C25.5519 7.68516 25.6519 7.87219 25.7987 8.01898C25.9455 8.16576 26.1325 8.26573 26.3361 8.30623C26.5397 8.34673 26.7507 8.32594 26.9425 8.2465C27.1343 8.16706 27.2982 8.03253 27.4136 7.85992C27.5289 7.68732 27.5905 7.48439 27.5905 7.2768C27.5838 7.00288 27.4702 6.74245 27.2741 6.55111C27.078 6.35978 26.8148 6.25271 26.5409 6.2528V6.2272Z" fill="#31EEE3"/>
<path d="M16.6016 27.2896H1.60002C1.43028 27.2896 1.2675 27.2222 1.14747 27.1021C1.02745 26.9821 0.960022 26.8193 0.960022 26.6496V23.68H2.24002V26.0416H16.6016V27.2896Z" fill="#31EEE3"/>
<path d="M24.3968 30.8864C23.0826 30.8864 21.798 30.4966 20.7054 29.7664C19.6128 29.0361 18.7613 27.9982 18.2587 26.784C17.7561 25.5697 17.6249 24.2336 17.8817 22.9448C18.1386 21.656 18.7719 20.4723 19.7016 19.5435C20.6313 18.6147 21.8156 17.9825 23.1047 17.7269C24.3938 17.4713 25.7297 17.6037 26.9435 18.1075C28.1573 18.6113 29.1943 19.4638 29.9235 20.5571C30.6527 21.6504 31.0413 22.9354 31.04 24.2496C31.0383 26.0104 30.3376 27.6985 29.092 28.9429C27.8463 30.1874 26.1576 30.8864 24.3968 30.8864V30.8864ZM24.3968 18.8864C23.3361 18.8864 22.2991 19.2009 21.4172 19.7903C20.5352 20.3796 19.8478 21.2172 19.4419 22.1972C19.0359 23.1772 18.9297 24.2555 19.1367 25.2959C19.3436 26.3363 19.8544 27.2919 20.6044 28.0419C21.3545 28.792 22.3101 29.3028 23.3505 29.5097C24.3909 29.7167 25.4692 29.6105 26.4492 29.2045C27.4292 28.7986 28.2668 28.1112 28.8561 27.2292C29.4455 26.3473 29.76 25.3103 29.76 24.2496C29.7583 22.8277 29.1927 21.4645 28.1873 20.4591C27.1819 19.4537 25.8187 18.8881 24.3968 18.8864V18.8864Z" fill="#31EEE3"/>
<path d="M25.0433 25.4848H20.8V24.2048H23.7633V20.0448H25.0433V25.4848Z" fill="#31EEE3"/>
</svg>
