<svg width="32" height="32" viewBox="0 0 32 32" fill="none" xmlns="http://www.w3.org/2000/svg">
<path d="M25.3333 13.3333H26.6667C27.0203 13.3333 27.3594 13.4738 27.6095 13.7238C27.8595 13.9739 28 14.313 28 14.6667V28C28 28.3536 27.8595 28.6928 27.6095 28.9428C27.3594 29.1928 27.0203 29.3333 26.6667 29.3333H5.33333C4.97971 29.3333 4.64057 29.1928 4.39052 28.9428C4.14048 28.6928 4 28.3536 4 28V14.6667C4 14.313 4.14048 13.9739 4.39052 13.7238C4.64057 13.4738 4.97971 13.3333 5.33333 13.3333H6.66667V12C6.66667 10.7743 6.90808 9.56065 7.37712 8.42828C7.84617 7.29591 8.53366 6.26701 9.40034 5.40033C10.267 4.53365 11.2959 3.84616 12.4283 3.37711C13.5607 2.90807 14.7743 2.66666 16 2.66666C17.2257 2.66666 18.4393 2.90807 19.5717 3.37711C20.7041 3.84616 21.733 4.53365 22.5997 5.40033C23.4663 6.26701 24.1538 7.29591 24.6229 8.42828C25.0919 9.56065 25.3333 10.7743 25.3333 12V13.3333ZM22.6667 13.3333V12C22.6667 10.2319 21.9643 8.53619 20.714 7.28594C19.4638 6.0357 17.7681 5.33332 16 5.33332C14.2319 5.33332 12.5362 6.0357 11.286 7.28594C10.0357 8.53619 9.33333 10.2319 9.33333 12V13.3333H22.6667ZM14.6667 18.6667V24H17.3333V18.6667H14.6667Z" fill="#31EEE3"/>
</svg>
