<svg width="32" height="32" viewBox="0 0 32 32" fill="none" xmlns="http://www.w3.org/2000/svg">
<path d="M5.0816 20.2368C5.0816 20.0576 5.0816 19.8848 5.0816 19.7056C5.09074 16.4257 6.37122 13.2772 8.65381 10.9219C10.9364 8.56666 14.0433 7.18817 17.3213 7.07628C20.5992 6.96439 23.7929 8.12782 26.2308 10.322C28.6686 12.5161 30.1608 15.57 30.3936 18.8416L29.1136 18.9248C28.9444 15.9528 27.6186 13.1652 25.42 11.1583C23.2214 9.15154 20.3246 8.08504 17.3495 8.18708C14.3745 8.28912 11.5576 9.55159 9.50162 11.7043C7.44566 13.8571 6.31399 16.729 6.3488 19.7056C6.3488 19.8656 6.3488 20.0256 6.3488 20.1856L5.0816 20.2368Z" fill="#31EEE3"/>
<path d="M5.58719 20.6208C5.58719 20.4032 5.58719 19.9104 5.58719 19.7824C5.5958 18.1597 5.97851 16.5608 6.70555 15.1101C7.43259 13.6593 8.48439 12.3957 9.77919 11.4176L9.84319 11.3728C11.6486 10.3166 13.7035 9.76197 15.7952 9.7664C18.2292 9.73618 20.6076 10.4948 22.5745 11.9288C24.5415 13.3628 25.9914 15.395 26.7072 17.7216L25.4784 18.0672C24.8413 16.0016 23.5509 14.1985 21.8013 12.929C20.0517 11.6595 17.9374 10.9921 15.776 11.0272C13.9266 11.0222 12.109 11.5081 10.5088 12.4352C9.37527 13.2964 8.45539 14.4072 7.82053 15.6814C7.18566 16.9555 6.85288 18.3588 6.84799 19.7824C6.84799 19.9104 6.84799 20.384 6.84799 20.5888L5.58719 20.6208Z" fill="#31EEE3"/>
<path d="M6.43199 24.2112L6.25919 22.9312C7.3935 22.8241 8.48819 22.4585 9.45919 21.8624C11.5776 20.3264 16.0576 19.776 18.4768 19.9424C20.0478 20.1776 21.5723 20.657 22.9952 21.3632C23.6249 21.6779 24.2827 21.9329 24.96 22.1248C26.0298 22.1574 27.1005 22.0975 28.16 21.9456H28.2688C28.6464 21.9072 29.0176 21.8688 29.376 21.8432H29.7344V19.5328H29.6L28.448 19.6416L27.5776 19.7184L27.4816 18.4384L28.3392 18.368L29.472 18.2592L29.7664 18.2272C29.925 18.2021 30.0872 18.2119 30.2418 18.2558C30.3963 18.2996 30.5394 18.3766 30.6611 18.4814C30.7829 18.5861 30.8805 18.7161 30.947 18.8623C31.0135 19.0085 31.0474 19.1674 31.0464 19.328V21.9456C31.0421 22.2258 30.9323 22.4941 30.739 22.697C30.5456 22.8998 30.2829 23.0223 30.0032 23.04H29.9136L29.5168 23.072L28.4288 23.1744H28.3136C27.1401 23.3469 25.9527 23.4047 24.768 23.3472C23.975 23.1611 23.2062 22.884 22.4768 22.5216C21.1796 21.8915 19.7942 21.462 18.368 21.248C16.192 21.0816 12.0384 21.5744 10.2016 22.912C9.06241 23.6307 7.77207 24.0754 6.43199 24.2112V24.2112Z" fill="#31EEE3"/>
<path d="M23.9168 19.6992C23.552 19.5904 23.1488 19.4368 22.6816 19.2576C21.1279 18.5533 19.4403 18.1931 17.7344 18.2016C14.624 18.3872 13.1136 18.5664 11.9744 18.8928L11.616 17.664C12.896 17.3056 14.4448 17.1136 17.664 16.928C19.5508 16.9021 21.4206 17.2887 23.1424 18.0608C23.5776 18.2336 23.9616 18.3744 24.2688 18.464L23.9168 19.6992Z" fill="#31EEE3"/>
<path d="M4.736 24.32C3.3664 24.32 2.016 24.0704 1.3184 23.3728C1.18589 23.2513 1.08555 23.0989 1.02636 22.9291C0.967167 22.7593 0.950965 22.5776 0.979201 22.4C1.1328 21.5872 2.176 21.12 3.6288 20.48C4.2688 20.2176 4.864 19.9424 5.4144 19.6416L6.0544 20.7616C5.4528 21.0944 4.7744 21.4016 4.1664 21.6576C3.54098 21.9057 2.93729 22.2054 2.3616 22.5536C2.9376 22.9568 4.384 23.1936 6.2848 22.9312L6.4576 24.2112C5.88671 24.2849 5.31162 24.3212 4.736 24.32V24.32Z" fill="#31EEE3"/>
<path d="M27.104 20.8384H24.544C24.2548 20.8367 23.9781 20.7207 23.7743 20.5156C23.5704 20.3105 23.456 20.0331 23.456 19.744V18.3424C23.456 18.0538 23.5706 17.7771 23.7747 17.5731C23.9787 17.369 24.2554 17.2544 24.544 17.2544H27.104C27.3925 17.2544 27.6693 17.369 27.8733 17.5731C28.0774 17.7771 28.192 18.0538 28.192 18.3424V19.744C28.192 20.0331 28.0776 20.3105 27.8737 20.5156C27.6699 20.7207 27.3931 20.8367 27.104 20.8384ZM24.736 19.5584H26.912V18.56H24.736V19.5584Z" fill="#31EEE3"/>
<path d="M10.5536 22.5792C8.63084 22.5663 6.77187 21.8879 5.29282 20.6592L6.14402 19.7312C7.41082 20.7567 8.9942 21.3109 10.624 21.2992L10.5536 22.5792Z" fill="#31EEE3"/>
</svg>
