<svg width="32" height="32" viewBox="0 0 32 32" fill="none" xmlns="http://www.w3.org/2000/svg">
<path d="M30.4 31.0016H1.60002C1.43029 31.0016 1.2675 30.9342 1.14748 30.8142C1.02745 30.6941 0.960025 30.5313 0.960025 30.3616V28.4416C0.958096 25.1798 2.05248 22.0119 4.06741 19.4468C6.08235 16.8817 8.90091 15.0682 12.0704 14.2976C12.2258 14.2584 12.3903 14.279 12.5312 14.3552C13.5932 14.935 14.7837 15.2388 15.9936 15.2388C17.2035 15.2388 18.3941 14.935 19.456 14.3552C19.5952 14.2806 19.757 14.2601 19.9104 14.2976C23.0846 15.0648 25.9083 16.8776 27.9271 19.4444C29.9459 22.0111 31.0423 25.1825 31.04 28.448V30.368C31.0383 30.5366 30.9702 30.6978 30.8503 30.8164C30.7305 30.9351 30.5687 31.0016 30.4 31.0016ZM2.24002 29.7216H29.76V28.4416C29.7609 25.5062 28.7873 22.6535 26.9919 20.3311C25.1966 18.0088 22.681 16.3481 19.84 15.6096C18.648 16.2074 17.3336 16.5206 16 16.5248C14.6657 16.527 13.3499 16.2134 12.16 15.6096C9.31794 16.3483 6.80165 18.01 5.00618 20.3337C3.21072 22.6573 2.23775 25.5115 2.24002 28.448V29.7216Z" fill="#31EEE3"/>
<path d="M16 16.48C14.6804 16.4848 13.3812 16.1545 12.224 15.52C11.0315 14.8517 10.0366 13.8804 9.33995 12.7043C8.64326 11.5282 8.26948 10.1889 8.2564 8.82201C8.24332 7.45509 8.59141 6.10894 9.26547 4.9197C9.93952 3.73046 10.9157 2.74029 12.0951 2.04931C13.2746 1.35834 14.6157 0.991059 15.9826 0.984614C17.3496 0.978169 18.694 1.33279 19.88 2.01261C21.066 2.69243 22.0514 3.67336 22.7366 4.85619C23.4219 6.03902 23.7826 7.38182 23.7824 8.7488C23.7835 10.1377 23.4079 11.5009 22.6957 12.6933C21.9834 13.8857 20.9611 14.8626 19.7376 15.52V15.52C18.5899 16.1431 17.306 16.4729 16 16.48V16.48ZM16 2.2784C14.5546 2.25021 13.1415 2.70838 11.9876 3.57942C10.8336 4.45045 10.0057 5.68385 9.63672 7.08173C9.26769 8.4796 9.37892 9.96092 9.95256 11.288C10.5262 12.6151 11.529 13.7111 12.8 14.4C13.767 14.9271 14.8507 15.2033 15.952 15.2033C17.0533 15.2033 18.1371 14.9271 19.104 14.4C20.1255 13.8531 20.9794 13.0392 21.5745 12.045C22.1696 11.0509 22.4837 9.91386 22.4832 8.7552C22.4765 7.03842 21.7911 5.39397 20.5765 4.18061C19.362 2.96726 17.7168 2.28346 16 2.2784V2.2784Z" fill="#31EEE3"/>
</svg>
