<svg width="29" height="33" viewBox="0 0 29 33" fill="none" xmlns="http://www.w3.org/2000/svg">
<path d="M9.59998 0.671487V0.666687H27.1968C28.08 0.666687 28.8 1.39469 28.8 2.25389V31.0795C28.7996 31.5006 28.632 31.9043 28.3341 32.2019C28.0362 32.4995 27.6323 32.6667 27.2112 32.6667H1.58878C1.37866 32.6652 1.17089 32.6224 0.977331 32.5406C0.783771 32.4589 0.608211 32.3398 0.460676 32.1901C0.313142 32.0405 0.196521 31.8633 0.117475 31.6686C0.0384277 31.474 -0.00149752 31.2656 -2.15584e-05 31.0555V10.2667L9.59998 0.671487ZM4.52798 10.2667H9.59998V5.19469L4.52798 10.2667ZM12.8 3.86669V11.8667C12.8 12.291 12.6314 12.698 12.3313 12.9981C12.0313 13.2981 11.6243 13.4667 11.2 13.4667H3.19998V29.4667H25.6V3.86669H12.8Z" fill="#31EEE3"/>
<path d="M7.47547 25C7.3948 25 7.3288 24.9744 7.27747 24.923C7.22614 24.8644 7.20047 24.7984 7.20047 24.725V17.575C7.20047 17.4944 7.22614 17.4284 7.27747 17.377C7.3288 17.3257 7.3948 17.3 7.47547 17.3H8.94947C9.03014 17.3 9.09614 17.3257 9.14747 17.377C9.20614 17.4284 9.23547 17.4944 9.23547 17.575V24.725C9.23547 24.7984 9.20614 24.8644 9.14747 24.923C9.09614 24.9744 9.03014 25 8.94947 25H7.47547ZM11.5919 25C11.5112 25 11.4452 24.9744 11.3939 24.923C11.3425 24.8644 11.3169 24.7984 11.3169 24.725V17.575C11.3169 17.4944 11.3425 17.4284 11.3939 17.377C11.4452 17.3257 11.5112 17.3 11.5919 17.3H12.7579C12.8825 17.3 12.9705 17.3294 13.0219 17.388C13.0805 17.4394 13.1172 17.4797 13.1319 17.509L15.8159 21.733V17.575C15.8159 17.4944 15.8415 17.4284 15.8929 17.377C15.9442 17.3257 16.0102 17.3 16.0909 17.3H17.4109C17.4915 17.3 17.5575 17.3257 17.6089 17.377C17.6602 17.4284 17.6859 17.4944 17.6859 17.575V24.714C17.6859 24.7947 17.6602 24.8644 17.6089 24.923C17.5575 24.9744 17.4915 25 17.4109 25H16.2339C16.1165 25 16.0285 24.9707 15.9699 24.912C15.9185 24.8534 15.8855 24.813 15.8709 24.791L13.1869 20.721V24.725C13.1869 24.7984 13.1612 24.8644 13.1099 24.923C13.0585 24.9744 12.9925 25 12.9119 25H11.5919ZM20.0481 25C19.9675 25 19.9015 24.9744 19.8501 24.923C19.7988 24.8644 19.7731 24.7984 19.7731 24.725V17.575C19.7731 17.4944 19.7988 17.4284 19.8501 17.377C19.9015 17.3257 19.9675 17.3 20.0481 17.3H21.5221C21.6028 17.3 21.6688 17.3257 21.7201 17.377C21.7788 17.4284 21.8081 17.4944 21.8081 17.575V24.725C21.8081 24.7984 21.7788 24.8644 21.7201 24.923C21.6688 24.9744 21.6028 25 21.5221 25H20.0481Z" fill="#31EEE3"/>
</svg>
