<svg width="32" height="32" viewBox="0 0 32 32" fill="none" xmlns="http://www.w3.org/2000/svg">
<g clip-path="url(#clip0_10_306)">
<path fill-rule="evenodd" clip-rule="evenodd" d="M10 4C10 3.73478 10.1054 3.48043 10.2929 3.29289C10.4804 3.10536 10.7348 3 11 3C12.724 3 14.146 3.574 15.12 4.132C15.468 4.33 15.762 4.528 16 4.704C16.238 4.528 16.532 4.33 16.88 4.132C18.1316 3.40288 19.5516 3.01272 21 3C21.2652 3 21.5196 3.10536 21.7071 3.29289C21.8946 3.48043 22 3.73478 22 4C22 4.26522 21.8946 4.51957 21.7071 4.70711C21.5196 4.89464 21.2652 5 21 5C19.724 5 18.646 5.426 17.872 5.868C17.567 6.04179 17.2755 6.23835 17 6.456V15H18C18.2652 15 18.5196 15.1054 18.7071 15.2929C18.8946 15.4804 19 15.7348 19 16C19 16.2652 18.8946 16.5196 18.7071 16.7071C18.5196 16.8946 18.2652 17 18 17H17V25.544C17.2 25.704 17.496 25.918 17.872 26.132C18.646 26.574 19.724 27 21 27C21.2652 27 21.5196 27.1054 21.7071 27.2929C21.8946 27.4804 22 27.7348 22 28C22 28.2652 21.8946 28.5196 21.7071 28.7071C21.5196 28.8946 21.2652 29 21 29C19.5516 28.9873 18.1316 28.5971 16.88 27.868C16.576 27.6957 16.2822 27.506 16 27.3C15.7178 27.5067 15.424 27.697 15.12 27.87C13.8684 28.5991 12.4484 28.9893 11 29.002C10.7348 29.002 10.4804 28.8966 10.2929 28.7091C10.1054 28.5216 10 28.2672 10 28.002C10 27.7368 10.1054 27.4824 10.2929 27.2949C10.4804 27.1074 10.7348 27.002 11 27.002C12.276 27.002 13.354 26.576 14.128 26.134C14.504 25.92 14.798 25.706 15 25.546V17H14C13.7348 17 13.4804 16.8946 13.2929 16.7071C13.1054 16.5196 13 16.2652 13 16C13 15.7348 13.1054 15.4804 13.2929 15.2929C13.4804 15.1054 13.7348 15 14 15H15V6.456C14.7245 6.23835 14.433 6.04179 14.128 5.868C13.1785 5.31177 12.1004 5.01261 11 5C10.7348 5 10.4804 4.89464 10.2929 4.70711C10.1054 4.51957 10 4.26522 10 4Z" fill="#31EEE3"/>
<path d="M20 10H28C28.5304 10 29.0391 10.2107 29.4142 10.5858C29.7893 10.9609 30 11.4696 30 12V20C30 20.5304 29.7893 21.0391 29.4142 21.4142C29.0391 21.7893 28.5304 22 28 22H20V24H28C29.0609 24 30.0783 23.5786 30.8284 22.8284C31.5786 22.0783 32 21.0609 32 20V12C32 10.9391 31.5786 9.92172 30.8284 9.17157C30.0783 8.42143 29.0609 8 28 8H20V10ZM12 10V8H4C2.93913 8 1.92172 8.42143 1.17157 9.17157C0.421427 9.92172 0 10.9391 0 12L0 20C0 21.0609 0.421427 22.0783 1.17157 22.8284C1.92172 23.5786 2.93913 24 4 24H12V22H4C3.46957 22 2.96086 21.7893 2.58579 21.4142C2.21071 21.0391 2 20.5304 2 20V12C2 11.4696 2.21071 10.9609 2.58579 10.5858C2.96086 10.2107 3.46957 10 4 10H12Z" fill="#31EEE3"/>
</g>
<defs>
<clipPath id="clip0_10_306">
<rect width="32" height="32" fill="white"/>
</clipPath>
</defs>
</svg>
