<svg width="32" height="32" viewBox="0 0 32 32" fill="none" xmlns="http://www.w3.org/2000/svg">
<path d="M28.8169 25.6933C27.8785 25.309 27.4771 24.799 27.5159 24.038C27.5559 23.1498 27.052 22.4992 26.8126 22.2421C26.9572 21.6898 27.3797 19.7793 26.8131 18.1198C26.2041 16.3435 24.3449 13.6306 22.4266 10.9639C21.6413 9.86876 21.6042 8.67835 21.5612 7.29993C21.5201 5.98519 21.4737 4.49493 20.7406 2.83826C19.9434 1.03439 18.3438 0 16.3517 0C15.1667 0 13.9502 0.370363 13.0141 1.01603C11.0973 2.33895 11.3507 5.22327 11.5183 7.13185C11.5413 7.3932 11.5629 7.64008 11.5755 7.85086C11.6871 9.72009 11.5856 10.7053 11.4527 11.0047C11.3668 11.2004 10.9438 11.7573 10.4961 12.3469C10.0331 12.9567 9.50817 13.6479 9.0779 14.292C8.56453 15.0671 8.1501 16.2517 7.74931 17.3973C7.45607 18.2356 7.17908 19.0274 6.90944 19.5006C6.39838 20.4109 6.52554 21.2597 6.63172 21.652C6.43825 21.7864 6.15875 22.051 5.92278 22.5498C5.63761 23.1583 5.05899 23.4853 3.85578 23.7167C3.30286 23.8298 2.92158 24.0623 2.72224 24.4077C2.43214 24.9103 2.59014 25.5419 2.7343 25.9736C2.94729 26.6081 2.81456 27.0098 2.57325 27.7389C2.51764 27.9072 2.45459 28.0978 2.39069 28.3079C2.29008 28.6396 2.32638 28.9411 2.49834 29.2041C2.95274 29.8988 4.27871 30.1438 5.6437 30.3049C6.45871 30.4017 7.35073 30.7277 8.21347 31.043C9.0588 31.3519 9.93288 31.6714 10.7274 31.7683C10.8482 31.7836 10.9678 31.7912 11.0831 31.7912C12.2827 31.7912 12.8248 30.9952 12.9966 30.6682C13.4275 30.5802 14.9137 30.2986 16.4454 30.2609C17.9747 30.2172 19.4544 30.5192 19.8735 30.6131C20.0053 30.8653 20.3527 31.4414 20.9064 31.7382C21.2108 31.9046 21.6344 32 22.0682 32C22.0683 32 22.0682 32 22.0683 32C22.5316 32 23.4131 31.8905 24.1107 31.1566C24.8065 30.4192 26.545 29.4779 27.8145 28.7905C28.0978 28.6371 28.3628 28.4936 28.5952 28.364C29.3083 27.9687 29.6975 27.4038 29.6628 26.8143C29.6338 26.3246 29.3097 25.8951 28.8169 25.6933ZM13.0298 25.5514C12.941 24.9261 12.1366 24.3059 11.205 23.5878C10.4433 23.0006 9.57994 22.3351 9.34209 21.7715C8.85054 20.6088 9.23801 18.5643 9.91358 17.5116C10.2474 16.9845 10.5201 16.1851 10.7839 15.412C11.0686 14.5773 11.3631 13.7142 11.6925 13.3364C12.214 12.7466 12.696 11.5989 12.7814 10.6944C13.2698 11.1606 14.0274 11.7523 14.7274 11.7523C14.8351 11.7523 14.9397 11.7382 15.0397 11.71C15.5185 11.5717 16.2229 11.1647 16.904 10.7713C17.4912 10.432 18.2154 10.0135 18.4879 9.97546C18.9551 10.6463 21.6698 16.6541 21.9472 18.5834C22.1667 20.11 21.9349 21.3719 21.8183 21.8662C21.7245 21.8534 21.6127 21.843 21.4951 21.843C20.739 21.843 20.5388 22.2558 20.4867 22.5022C20.3526 23.1426 20.3384 25.19 20.3369 25.6501C20.0635 25.9975 18.6808 27.6334 16.6956 27.9275C15.887 28.045 15.1319 28.1046 14.4514 28.1046C13.8698 28.1046 13.4985 28.0597 13.3444 28.0363L12.3469 26.8949C12.7402 26.7007 13.1334 26.2908 13.0298 25.5514ZM14.2956 6.73043C14.2645 6.74386 14.2338 6.75823 14.2037 6.77355C14.2007 6.70599 14.1936 6.63747 14.1828 6.56875C14.0739 5.94186 13.6582 5.48683 13.1946 5.48683C13.1603 5.48683 13.1258 5.48945 13.0879 5.49522C12.8121 5.54118 12.5957 5.74839 12.4772 6.04216C12.5811 5.39754 12.9464 4.92027 13.3797 4.92027C13.8885 4.92027 14.3184 5.60602 14.3184 6.41767C14.3184 6.51996 14.3109 6.62174 14.2956 6.73043ZM18.2496 7.21379C18.2962 7.06544 18.3213 6.90491 18.3213 6.7383C18.3213 6.0024 17.8545 5.42587 17.2584 5.42587C16.6759 5.42587 16.202 6.01457 16.202 6.7383C16.202 6.78761 16.2044 6.83703 16.209 6.88634C16.1782 6.87448 16.1481 6.86294 16.1187 6.85182C16.0516 6.6488 16.0178 6.43697 16.0178 6.22074C16.0178 5.34078 16.5801 4.62482 17.2715 4.62482C17.9628 4.62482 18.5253 5.34078 18.5253 6.22074C18.5253 6.5868 18.4243 6.93618 18.2496 7.21379ZM17.7398 8.92649C17.7298 8.97097 17.7086 8.9907 17.4742 9.11261C17.3559 9.1742 17.2086 9.25089 17.0242 9.36316L16.9011 9.43775C16.4061 9.73782 15.247 10.4407 14.9324 10.4819C14.7186 10.5107 14.5865 10.4278 14.2892 10.2258C14.2222 10.1802 14.1508 10.1317 14.0748 10.0829C13.5389 9.73132 13.1943 9.34406 13.1554 9.19266C13.33 9.05763 13.763 8.71969 13.9847 8.51961C14.4347 8.10119 14.8876 7.82001 15.1117 7.82001C15.1235 7.82001 15.1342 7.82085 15.1454 7.82295C15.4087 7.86943 16.0583 8.12868 16.5327 8.31796C16.752 8.40546 16.9414 8.481 17.0746 8.52884C17.4944 8.673 17.7132 8.85745 17.7398 8.92649ZM21.5113 28.4802C21.7481 27.412 22.0209 25.9589 21.9767 25.1022C21.9665 24.9076 21.9493 24.6958 21.9327 24.491C21.9015 24.108 21.8552 23.5388 21.903 23.37C21.9124 23.3656 21.9229 23.3618 21.9345 23.3586C21.9365 23.8483 22.0429 24.8252 22.8241 25.1659C23.057 25.2675 23.323 25.3189 23.6149 25.3189C24.3975 25.3189 25.2658 24.935 25.6215 24.5793C25.8309 24.3699 26.0071 24.1137 26.1305 23.9108C26.1574 23.9898 26.174 24.093 26.1653 24.226C26.1188 24.9484 26.4699 25.9067 27.138 26.2599L27.2353 26.311C27.4732 26.4358 28.1052 26.7677 28.1154 26.9251C28.1153 26.9252 28.1101 26.9437 28.0748 26.9764C27.9165 27.1211 27.3593 27.4056 26.8204 27.6808C25.8645 28.1689 24.781 28.7221 24.2944 29.2339C23.6093 29.9549 22.8343 30.4392 22.3664 30.4392C22.31 30.4392 22.2587 30.4321 22.2131 30.4176C21.7049 30.2592 21.2866 29.5259 21.5113 28.4802ZM4.18806 25.7551C4.13623 25.5126 4.09531 25.3211 4.13927 25.1356C4.17116 24.9981 4.84967 24.8508 5.13946 24.788C5.54686 24.6995 5.96821 24.6082 6.24373 24.4409C6.6163 24.2152 6.81805 23.799 6.996 23.4318C7.12484 23.1663 7.25787 22.8917 7.4162 22.8016C7.42511 22.7963 7.43875 22.7902 7.46477 22.7902C7.76138 22.7902 8.38376 23.4138 8.74237 23.9718C8.83333 24.1125 9.00183 24.3944 9.19677 24.7208C9.77981 25.6964 10.5781 27.0325 10.9951 27.4803C11.3708 27.8829 11.979 28.6569 11.8294 29.3207C11.7199 29.8357 11.1367 30.2546 10.9992 30.3472C10.9492 30.3585 10.8874 30.3643 10.8147 30.3643C10.0167 30.3643 8.43706 29.7004 7.58837 29.3437L7.46278 29.2909C6.98886 29.0922 6.21519 28.967 5.46702 28.8459C4.87171 28.7495 4.05649 28.6176 3.92135 28.4984C3.81182 28.3756 3.93887 27.9762 4.05093 27.6237C4.13161 27.3705 4.21492 27.1086 4.26055 26.8344C4.32529 26.3971 4.24912 26.0411 4.18806 25.7551Z" fill="#31EEE3"/>
</svg>
