<svg width="97" height="32" viewBox="0 0 97 32" fill="none" xmlns="http://www.w3.org/2000/svg">
<g clip-path="url(#clip0_24_98)">
<path d="M22 2C22.5304 2 23.0391 2.21071 23.4142 2.58579C23.7893 2.96086 24 3.46957 24 4V28C24 28.5304 23.7893 29.0391 23.4142 29.4142C23.0391 29.7893 22.5304 30 22 30H10C9.46957 30 8.96086 29.7893 8.58579 29.4142C8.21071 29.0391 8 28.5304 8 28V4C8 3.46957 8.21071 2.96086 8.58579 2.58579C8.96086 2.21071 9.46957 2 10 2H22ZM10 0C8.93913 0 7.92172 0.421427 7.17157 1.17157C6.42143 1.92172 6 2.93913 6 4V28C6 29.0609 6.42143 30.0783 7.17157 30.8284C7.92172 31.5786 8.93913 32 10 32H22C23.0609 32 24.0783 31.5786 24.8284 30.8284C25.5786 30.0783 26 29.0609 26 28V4C26 2.93913 25.5786 1.92172 24.8284 1.17157C24.0783 0.421427 23.0609 0 22 0L10 0Z" fill="#31EEE3"/>
<path d="M16 28C16.5304 28 17.0391 27.7893 17.4142 27.4142C17.7893 27.0391 18 26.5304 18 26C18 25.4696 17.7893 24.9609 17.4142 24.5858C17.0391 24.2107 16.5304 24 16 24C15.4696 24 14.9609 24.2107 14.5858 24.5858C14.2107 24.9609 14 25.4696 14 26C14 26.5304 14.2107 27.0391 14.5858 27.4142C14.9609 27.7893 15.4696 28 16 28Z" fill="#31EEE3"/>
</g>
<path d="M36.172 15L30.808 9.63598L32.222 8.22198L40 16L32.222 23.778L30.808 22.364L36.172 17H24V15H36.172Z" fill="#31EEE3"/>
<path d="M46.3598 20C46.2731 20 46.1951 19.9697 46.1258 19.909C46.0651 19.8397 46.0348 19.7617 46.0348 19.675V13.487L44.2538 14.852C44.1758 14.9127 44.0935 14.9343 44.0068 14.917C43.9288 14.8997 43.8595 14.852 43.7988 14.774L43.0318 13.773C42.9798 13.695 42.9581 13.6127 42.9668 13.526C42.9841 13.4307 43.0361 13.357 43.1228 13.305L46.1128 10.991C46.1648 10.9563 46.2125 10.9347 46.2558 10.926C46.3078 10.9087 46.3641 10.9 46.4248 10.9H48.0498C48.1451 10.9 48.2231 10.9303 48.2838 10.991C48.3445 11.0517 48.3748 11.1297 48.3748 11.225V19.675C48.3748 19.7617 48.3445 19.8397 48.2838 19.909C48.2231 19.9697 48.1451 20 48.0498 20H46.3598ZM50.7417 20C50.6464 20 50.564 19.9697 50.4947 19.909C50.434 19.8397 50.4037 19.7617 50.4037 19.675V18.752C50.4037 18.6913 50.421 18.6003 50.4557 18.479C50.4904 18.349 50.5814 18.2277 50.7287 18.115L52.0807 16.789C52.774 16.2603 53.3417 15.814 53.7837 15.45C54.2344 15.0773 54.568 14.748 54.7847 14.462C55.0014 14.176 55.1097 13.9073 55.1097 13.656C55.1097 13.3613 55.0317 13.1187 54.8757 12.928C54.7284 12.7287 54.4684 12.629 54.0957 12.629C53.8444 12.629 53.6364 12.6853 53.4717 12.798C53.307 12.902 53.177 13.0407 53.0817 13.214C52.995 13.3873 52.9344 13.565 52.8997 13.747C52.865 13.8597 52.8044 13.9377 52.7177 13.981C52.6397 14.0243 52.553 14.046 52.4577 14.046H50.8327C50.7547 14.046 50.6897 14.02 50.6377 13.968C50.5857 13.916 50.5597 13.851 50.5597 13.773C50.5684 13.357 50.655 12.967 50.8197 12.603C50.993 12.2303 51.2314 11.9053 51.5347 11.628C51.8467 11.3507 52.215 11.134 52.6397 10.978C53.073 10.8133 53.5584 10.731 54.0957 10.731C54.8324 10.731 55.4564 10.8523 55.9677 11.095C56.4877 11.329 56.882 11.6583 57.1507 12.083C57.4194 12.499 57.5537 12.9887 57.5537 13.552C57.5537 13.9767 57.4584 14.3753 57.2677 14.748C57.0857 15.112 56.8214 15.463 56.4747 15.801C56.1367 16.1303 55.7337 16.4727 55.2657 16.828L54.0697 18.037H57.4107C57.506 18.037 57.584 18.0673 57.6447 18.128C57.714 18.1887 57.7487 18.2667 57.7487 18.362V19.675C57.7487 19.7617 57.714 19.8397 57.6447 19.909C57.584 19.9697 57.506 20 57.4107 20H50.7417ZM63.2008 20.13C62.5334 20.13 61.9571 20.052 61.4718 19.896C60.9951 19.7313 60.6051 19.5233 60.3018 19.272C59.9984 19.012 59.7731 18.739 59.6258 18.453C59.4784 18.1583 59.4004 17.8767 59.3918 17.608C59.3918 17.53 59.4178 17.465 59.4698 17.413C59.5304 17.361 59.5998 17.335 59.6778 17.335H61.3808C61.4761 17.335 61.5541 17.3567 61.6148 17.4C61.6754 17.4347 61.7318 17.4953 61.7838 17.582C61.8531 17.7467 61.9528 17.881 62.0828 17.985C62.2214 18.089 62.3861 18.1627 62.5768 18.206C62.7674 18.2407 62.9754 18.258 63.2008 18.258C63.6428 18.258 63.9851 18.1583 64.2278 17.959C64.4791 17.751 64.6048 17.4693 64.6048 17.114C64.6048 16.7413 64.4878 16.477 64.2538 16.321C64.0198 16.1563 63.6861 16.074 63.2528 16.074H61.8098C61.7144 16.074 61.6364 16.0437 61.5758 15.983C61.5151 15.9223 61.4848 15.8443 61.4848 15.749V15.021C61.4848 14.917 61.5064 14.826 61.5498 14.748C61.5931 14.67 61.6408 14.6137 61.6928 14.579L63.8248 12.772H60.2108C60.1241 12.772 60.0461 12.7417 59.9768 12.681C59.9161 12.6203 59.8858 12.5423 59.8858 12.447V11.225C59.8858 11.1297 59.9161 11.0517 59.9768 10.991C60.0461 10.9303 60.1241 10.9 60.2108 10.9H66.1908C66.2861 10.9 66.3641 10.9303 66.4248 10.991C66.4941 11.0517 66.5288 11.1297 66.5288 11.225V12.33C66.5288 12.4253 66.5071 12.512 66.4638 12.59C66.4204 12.6593 66.3728 12.7157 66.3208 12.759L64.3448 14.592L64.4358 14.618C64.9384 14.6787 65.3804 14.8087 65.7618 15.008C66.1518 15.2073 66.4594 15.4933 66.6848 15.866C66.9101 16.23 67.0228 16.6937 67.0228 17.257C67.0228 17.8463 66.8538 18.3577 66.5158 18.791C66.1864 19.2157 65.7358 19.545 65.1638 19.779C64.5918 20.013 63.9374 20.13 63.2008 20.13ZM73.2521 20C73.1655 20 73.0875 19.9697 73.0181 19.909C72.9575 19.8397 72.9271 19.7617 72.9271 19.675V18.206H68.8841C68.7975 18.206 68.7195 18.1757 68.6501 18.115C68.5895 18.0543 68.5591 17.9763 68.5591 17.881V16.646C68.5591 16.568 68.5721 16.4987 68.5981 16.438C68.6328 16.3687 68.6675 16.3037 68.7021 16.243L72.4851 11.121C72.5978 10.9737 72.7581 10.9 72.9661 10.9H74.8641C74.9508 10.9 75.0245 10.9303 75.0851 10.991C75.1545 11.0517 75.1891 11.1297 75.1891 11.225V16.269H76.3331C76.4371 16.269 76.5195 16.3037 76.5801 16.373C76.6408 16.4337 76.6711 16.5073 76.6711 16.594V17.881C76.6711 17.9763 76.6365 18.0543 76.5671 18.115C76.5065 18.1757 76.4328 18.206 76.3461 18.206H75.1891V19.675C75.1891 19.7617 75.1545 19.8397 75.0851 19.909C75.0245 19.9697 74.9508 20 74.8641 20H73.2521ZM70.7951 16.36H72.9791V13.292L70.7951 16.36ZM81.8791 20.143C81.0645 20.143 80.3841 20.0173 79.8381 19.766C79.2921 19.506 78.8761 19.1723 78.5901 18.765C78.3128 18.349 78.1655 17.9027 78.1481 17.426C78.1481 17.348 78.1741 17.283 78.2261 17.231C78.2781 17.179 78.3431 17.153 78.4211 17.153H80.1631C80.2758 17.153 80.3625 17.1747 80.4231 17.218C80.4925 17.2613 80.5445 17.322 80.5791 17.4C80.6571 17.5993 80.7611 17.764 80.8911 17.894C81.0211 18.024 81.1685 18.1193 81.3331 18.18C81.4978 18.2407 81.6841 18.271 81.8921 18.271C82.1348 18.271 82.3601 18.219 82.5681 18.115C82.7761 18.011 82.9408 17.8593 83.0621 17.66C83.1921 17.452 83.2571 17.205 83.2571 16.919C83.2571 16.659 83.1965 16.4337 83.0751 16.243C82.9625 16.0523 82.8021 15.9007 82.5941 15.788C82.3948 15.6753 82.1608 15.619 81.8921 15.619C81.6841 15.619 81.5151 15.645 81.3851 15.697C81.2551 15.7403 81.1468 15.7967 81.0601 15.866C80.9735 15.9353 80.8955 15.996 80.8261 16.048C80.7568 16.0913 80.6788 16.113 80.5921 16.113H78.8891C78.8111 16.113 78.7418 16.087 78.6811 16.035C78.6291 15.9743 78.6031 15.905 78.6031 15.827L79.0711 11.29C79.0885 11.16 79.1361 11.0647 79.2141 11.004C79.2921 10.9347 79.3875 10.9 79.5001 10.9H84.7131C84.8085 10.9 84.8865 10.9303 84.9471 10.991C85.0165 11.0517 85.0511 11.1297 85.0511 11.225V12.447C85.0511 12.5423 85.0165 12.6203 84.9471 12.681C84.8865 12.7417 84.8085 12.772 84.7131 12.772H80.9431L80.7741 14.449C80.9648 14.3277 81.1858 14.2237 81.4371 14.137C81.6971 14.0503 82.0525 14.007 82.5031 14.007C82.9105 14.007 83.3005 14.0807 83.6731 14.228C84.0545 14.3667 84.3925 14.566 84.6871 14.826C84.9905 15.086 85.2245 15.398 85.3891 15.762C85.5625 16.1173 85.6491 16.5203 85.6491 16.971C85.6491 17.5863 85.4975 18.1323 85.1941 18.609C84.8995 19.0857 84.4705 19.4627 83.9071 19.74C83.3438 20.0087 82.6678 20.143 81.8791 20.143ZM91.0764 20.13C90.3051 20.13 89.6291 19.9913 89.0484 19.714C88.4678 19.4367 88.0128 19.0553 87.6834 18.57C87.3628 18.076 87.2024 17.5127 87.2024 16.88C87.2024 16.6113 87.2414 16.347 87.3194 16.087C87.4061 15.8183 87.5101 15.567 87.6314 15.333C87.7528 15.0903 87.8741 14.878 87.9954 14.696C88.1168 14.5053 88.2164 14.3537 88.2944 14.241L90.5824 11.16C90.6258 11.1167 90.6821 11.0647 90.7514 11.004C90.8208 10.9347 90.9204 10.9 91.0504 10.9H92.7794C92.8574 10.9 92.9224 10.9303 92.9744 10.991C93.0264 11.043 93.0524 11.108 93.0524 11.186C93.0524 11.2207 93.0481 11.2553 93.0394 11.29C93.0308 11.316 93.0178 11.3377 93.0004 11.355L91.2454 13.747C91.2974 13.7297 91.3581 13.721 91.4274 13.721C91.5054 13.7123 91.5748 13.708 91.6354 13.708C92.0254 13.7253 92.4111 13.812 92.7924 13.968C93.1738 14.124 93.5204 14.3363 93.8324 14.605C94.1444 14.8737 94.3914 15.1987 94.5734 15.58C94.7641 15.9527 94.8594 16.3687 94.8594 16.828C94.8594 17.4347 94.7034 17.9893 94.3914 18.492C94.0794 18.986 93.6374 19.3847 93.0654 19.688C92.5021 19.9827 91.8391 20.13 91.0764 20.13ZM91.0504 18.258C91.3018 18.258 91.5358 18.206 91.7524 18.102C91.9691 17.9893 92.1424 17.829 92.2724 17.621C92.4111 17.413 92.4804 17.1617 92.4804 16.867C92.4804 16.5637 92.4154 16.3123 92.2854 16.113C92.1554 15.905 91.9821 15.749 91.7654 15.645C91.5488 15.541 91.3104 15.489 91.0504 15.489C90.7904 15.489 90.5478 15.541 90.3224 15.645C90.1058 15.749 89.9324 15.905 89.8024 16.113C89.6724 16.3123 89.6074 16.5637 89.6074 16.867C89.6074 17.1617 89.6724 17.413 89.8024 17.621C89.9411 17.829 90.1188 17.9893 90.3354 18.102C90.5521 18.206 90.7904 18.258 91.0504 18.258Z" fill="#31EEE3"/>
<defs>
<clipPath id="clip0_24_98">
<rect width="32" height="32" fill="white"/>
</clipPath>
</defs>
</svg>
