<svg width="31" height="33" viewBox="0 0 31 33" fill="none" xmlns="http://www.w3.org/2000/svg">
<path d="M5.59736 27.7483C6.78079 27.0649 6.78286 24.8527 5.60174 22.807C4.42067 20.7615 2.50381 19.657 1.32031 20.3403C0.136809 21.0237 0.134845 23.2359 1.31591 25.2816C2.49698 27.3271 4.41386 28.4314 5.59736 27.7483Z" fill="#31EEE3"/>
<path d="M29.8033 25.2844C30.9842 23.2389 30.9824 21.0267 29.7988 20.3433C28.6153 19.66 26.6986 20.7643 25.5174 22.81C24.3363 24.8555 24.3383 27.0678 25.5218 27.7511C26.7054 28.4345 28.6221 27.3301 29.8033 25.2844Z" fill="#31EEE3"/>
<path d="M13.6624 32.4111C14.846 31.7277 14.8479 29.5155 13.6669 27.4698C12.4858 25.4243 10.569 24.32 9.3854 25.0032C8.20199 25.6865 8.19992 27.8987 9.38106 29.9444C10.5622 31.9899 12.479 33.0944 13.6624 32.4111Z" fill="#31EEE3"/>
<path d="M21.7396 29.9397C22.9207 27.894 22.9188 25.6818 21.7352 24.9984C20.5518 24.3153 18.6348 25.4196 17.4539 27.4651C16.2727 29.5108 16.2746 31.723 17.4582 32.4064C18.6416 33.0897 20.5586 31.9852 21.7396 29.9397Z" fill="#31EEE3"/>
<path d="M15.5545 5.56234C17.9166 5.56234 19.8315 4.45448 19.8315 3.08785C19.8315 1.72122 17.9166 0.613342 15.5545 0.613342C13.1922 0.613342 11.2773 1.72122 11.2773 3.08785C11.2773 4.45448 13.1922 5.56234 15.5545 5.56234Z" fill="#31EEE3"/>
<path d="M5.59456 18.4267C6.77812 17.7436 6.78 15.5314 5.59895 13.4857C4.41789 11.4401 2.50101 10.3356 1.3175 11.019C0.134001 11.7023 0.132037 13.9145 1.31311 15.9601C2.49419 18.0058 4.41105 19.1101 5.59456 18.4267Z" fill="#31EEE3"/>
<path d="M7.49088 10.2127C9.85316 10.2127 11.7681 9.10483 11.7681 7.73828C11.7681 6.37165 9.85316 5.26377 7.49088 5.26377C5.12878 5.26377 3.21387 6.37165 3.21387 7.73828C3.21387 9.10483 5.12878 10.2127 7.49088 10.2127Z" fill="#31EEE3"/>
<path d="M29.7985 15.9654C30.9795 13.9196 30.9776 11.7074 29.7942 11.0241C28.6106 10.3409 26.6938 11.4452 25.5127 13.4908C24.3315 15.5365 24.3336 17.7487 25.517 18.432C26.7006 19.1154 28.6174 18.0109 29.7985 15.9654Z" fill="#31EEE3"/>
<path d="M23.6286 10.2127C25.9906 10.2127 27.9055 9.10483 27.9055 7.73828C27.9055 6.37165 25.9906 5.26377 23.6286 5.26377C21.2665 5.26377 19.3516 6.37165 19.3516 7.73828C19.3516 9.10483 21.2665 10.2127 23.6286 10.2127Z" fill="#31EEE3"/>
<path d="M13.66 23.0898C14.8434 22.4064 14.8455 20.1942 13.6643 18.1487C12.4832 16.103 10.5664 14.9987 9.38299 15.682C8.1994 16.3652 8.19751 18.5776 9.37846 20.6231C10.5596 22.6688 12.4764 23.7731 13.66 23.0898Z" fill="#31EEE3"/>
<path d="M21.735 20.6204C22.9162 18.5749 22.9141 16.3625 21.7307 15.6794C20.5471 14.996 18.6303 16.1003 17.4492 18.146C16.268 20.1916 16.2701 22.4038 17.4535 23.0871C18.6371 23.7705 20.5539 22.6661 21.735 20.6204Z" fill="#31EEE3"/>
<path d="M15.5545 14.8737C17.9166 14.8737 19.8315 13.7658 19.8315 12.3991C19.8315 11.0326 17.9166 9.92467 15.5545 9.92467C13.1922 9.92467 11.2773 11.0326 11.2773 12.3991C11.2773 13.7658 13.1922 14.8737 15.5545 14.8737Z" fill="#31EEE3"/>
</svg>
