<svg width="80" height="32" viewBox="0 0 80 32" fill="none" xmlns="http://www.w3.org/2000/svg">
<path d="M46.172 15L40.808 9.636L42.222 8.222L50 16L42.222 23.778L40.808 22.364L46.172 17H34V15H46.172Z" fill="#31EEE3"/>
<path d="M3.81738 12.2129C3.81738 12.0467 3.81738 11.8864 3.81738 11.7202C3.82586 8.67825 5.01347 5.75804 7.13052 3.57359C9.24757 1.38914 12.1291 0.110623 15.1694 0.00684777C18.2096 -0.0969272 21.1716 0.982125 23.4327 3.01713C25.6938 5.05214 27.0777 7.88457 27.2936 10.9189L26.1065 10.9961C25.9495 8.23963 24.7199 5.65413 22.6807 3.79287C20.6415 1.93161 17.9548 0.942452 15.1956 1.03709C12.4363 1.13173 9.82369 2.30264 7.91684 4.29925C6.00999 6.29585 4.96039 8.95953 4.99268 11.7202C4.99268 11.8686 4.99268 12.017 4.99268 12.1654L3.81738 12.2129Z" fill="#31EEE3"/>
<path d="M4.28638 12.5691C4.28638 12.3672 4.28638 11.9102 4.28638 11.7915C4.29437 10.2864 4.64931 8.80352 5.32363 7.45798C5.99794 6.11244 6.97346 4.94053 8.17435 4.03332L8.23371 3.99177C9.9082 3.01213 11.814 2.49776 13.754 2.50187C16.0115 2.47384 18.2174 3.17744 20.0417 4.50743C21.866 5.83741 23.2107 7.7223 23.8747 9.88012L22.735 10.2007C22.1441 8.28484 20.9473 6.61255 19.3246 5.43512C17.7019 4.25769 15.7409 3.63872 13.7362 3.67123C12.021 3.66663 10.3352 4.11726 8.85104 4.97712C7.79973 5.77587 6.94656 6.80609 6.35774 7.98785C5.76892 9.16962 5.46027 10.4711 5.45574 11.7915C5.45574 11.9102 5.45574 12.3494 5.45574 12.5394L4.28638 12.5691Z" fill="#31EEE3"/>
<path d="M5.06987 15.8991L4.90961 14.7119C5.96166 14.6126 6.97696 14.2735 7.87753 13.7206C9.84229 12.296 13.9974 11.7855 16.2411 11.9398C17.6982 12.158 19.1122 12.6026 20.4318 13.2576C21.0158 13.5495 21.626 13.786 22.2541 13.964C23.2464 13.9943 24.2394 13.9386 25.2221 13.7978H25.323C25.6732 13.7622 26.0175 13.7265 26.3499 13.7028H26.6823V11.56H26.5576L25.4892 11.6609L24.6819 11.7321L24.5929 10.5449L25.3883 10.4796L26.4389 10.3787L26.7119 10.349C26.8591 10.3258 27.0095 10.3348 27.1528 10.3755C27.2961 10.4162 27.4289 10.4876 27.5418 10.5848C27.6548 10.6819 27.7452 10.8025 27.8069 10.9381C27.8686 11.0736 27.9001 11.221 27.8991 11.37V13.7978C27.8952 14.0577 27.7933 14.3065 27.614 14.4946C27.4347 14.6828 27.191 14.7964 26.9316 14.8128H26.8485L26.4805 14.8425L25.4714 14.9374H25.3645C24.2762 15.0974 23.1748 15.1511 22.0761 15.0977C21.3406 14.9251 20.6276 14.6681 19.951 14.332C18.7479 13.7475 17.463 13.3493 16.1402 13.1508C14.122 12.9964 10.2697 13.4535 8.56608 14.6941C7.50952 15.3607 6.31277 15.7731 5.06987 15.8991V15.8991Z" fill="#31EEE3"/>
<path d="M21.2866 11.7143C20.9483 11.6134 20.5743 11.4709 20.141 11.3047C18.6999 10.6515 17.1348 10.3174 15.5526 10.3253C12.6678 10.4974 11.2669 10.6636 10.2103 10.9664L9.87793 9.82669C11.0651 9.49429 12.5016 9.31621 15.4873 9.14407C17.2373 9.12001 18.9714 9.47859 20.5684 10.1947C20.972 10.355 21.3282 10.4856 21.6131 10.5687L21.2866 11.7143Z" fill="#31EEE3"/>
<path d="M3.49686 16C2.22659 16 0.974129 15.7685 0.327123 15.1215C0.204222 15.0088 0.111162 14.8674 0.0562621 14.7099C0.00136261 14.5525 -0.0136649 14.3839 0.0125232 14.2192C0.154983 13.4654 1.12253 13.0321 2.46996 12.4385C3.06355 12.1951 3.61558 11.9399 4.12606 11.6609L4.71965 12.6996C4.16168 13.0083 3.53248 13.2932 2.96857 13.5307C2.38851 13.7607 1.8286 14.0387 1.29466 14.3617C1.82889 14.7356 3.17039 14.9553 4.93333 14.7119L5.0936 15.8991C4.56412 15.9674 4.03074 16.0011 3.49686 16V16Z" fill="#31EEE3"/>
<path d="M24.2426 12.7709H21.8683C21.6001 12.7693 21.3435 12.6617 21.1544 12.4715C20.9653 12.2813 20.8592 12.024 20.8592 11.7558V10.4559C20.8592 10.1883 20.9655 9.9316 21.1547 9.74236C21.344 9.55312 21.6007 9.4468 21.8683 9.4468H24.2426C24.5102 9.4468 24.7669 9.55312 24.9562 9.74236C25.1454 9.9316 25.2517 10.1883 25.2517 10.4559V11.7558C25.2517 12.024 25.1456 12.2813 24.9565 12.4715C24.7674 12.6617 24.5108 12.7693 24.2426 12.7709ZM22.0464 11.5837H24.0645V10.6577H22.0464V11.5837Z" fill="#31EEE3"/>
<path d="M8.89257 14.3854C7.10924 14.3735 5.38509 13.7442 4.01331 12.6047L4.80277 11.744C5.9777 12.6951 7.44625 13.2091 8.95786 13.1983L8.89257 14.3854Z" fill="#31EEE3"/>
<path d="M55.8174 28.2129C55.8174 28.0467 55.8174 27.8864 55.8174 27.7202C55.8259 24.6782 57.0135 21.758 59.1305 19.5736C61.2476 17.3891 64.1291 16.1106 67.1694 16.0068C70.2096 15.9031 73.1716 16.9821 75.4327 19.0171C77.6938 21.0521 79.0777 23.8846 79.2936 26.9189L78.1065 26.9961C77.9495 24.2396 76.7199 21.6541 74.6807 19.7929C72.6415 17.9316 69.9548 16.9425 67.1956 17.0371C64.4363 17.1317 61.8237 18.3026 59.9168 20.2992C58.01 22.2959 56.9604 24.9595 56.9927 27.7202C56.9927 27.8686 56.9927 28.017 56.9927 28.1654L55.8174 28.2129Z" fill="#31EEE3"/>
<path d="M56.2864 28.5691C56.2864 28.3672 56.2864 27.9102 56.2864 27.7915C56.2944 26.2864 56.6493 24.8035 57.3236 23.458C57.9979 22.1124 58.9735 20.9405 60.1744 20.0333L60.2337 19.9918C61.9082 19.0121 63.814 18.4978 65.754 18.5019C68.0115 18.4738 70.2174 19.1774 72.0417 20.5074C73.866 21.8374 75.2107 23.7223 75.8747 25.8801L74.735 26.2007C74.1441 24.2848 72.9473 22.6126 71.3246 21.4351C69.7019 20.2577 67.7409 19.6387 65.7362 19.6712C64.021 19.6666 62.3352 20.1173 60.851 20.9771C59.7997 21.7759 58.9466 22.8061 58.3577 23.9879C57.7689 25.1696 57.4603 26.4711 57.4557 27.7915C57.4557 27.9102 57.4557 28.3494 57.4557 28.5394L56.2864 28.5691Z" fill="#31EEE3"/>
<path d="M57.0699 31.8991L56.9096 30.7119C57.9617 30.6126 58.977 30.2735 59.8775 29.7206C61.8423 28.296 65.9974 27.7855 68.2411 27.9398C69.6982 28.158 71.1122 28.6026 72.4318 29.2576C73.0158 29.5495 73.626 29.786 74.2541 29.964C75.2464 29.9943 76.2394 29.9386 77.2221 29.7978H77.323C77.6732 29.7622 78.0175 29.7265 78.3499 29.7028H78.6823V27.56H78.5576L77.4892 27.6609L76.6819 27.7321L76.5929 26.5449L77.3883 26.4796L78.4389 26.3787L78.7119 26.349C78.8591 26.3258 79.0095 26.3348 79.1528 26.3755C79.2961 26.4162 79.4289 26.4876 79.5418 26.5848C79.6548 26.6819 79.7452 26.8025 79.8069 26.9381C79.8686 27.0736 79.9001 27.221 79.8991 27.37V29.7978C79.8952 30.0577 79.7933 30.3065 79.614 30.4946C79.4347 30.6828 79.191 30.7964 78.9316 30.8128H78.8485L78.4805 30.8425L77.4714 30.9374H77.3645C76.2762 31.0974 75.1748 31.1511 74.0761 31.0977C73.3406 30.9251 72.6276 30.6681 71.951 30.332C70.7479 29.7475 69.463 29.3493 68.1402 29.1508C66.122 28.9964 62.2697 29.4535 60.5661 30.6941C59.5095 31.3607 58.3128 31.7731 57.0699 31.8991V31.8991Z" fill="#31EEE3"/>
<path d="M73.2866 27.7143C72.9483 27.6134 72.5743 27.4709 72.141 27.3047C70.6999 26.6515 69.1348 26.3174 67.5526 26.3253C64.6678 26.4974 63.2669 26.6636 62.2103 26.9664L61.8779 25.8267C63.0651 25.4943 64.5016 25.3162 67.4873 25.1441C69.2373 25.12 70.9714 25.4786 72.5684 26.1947C72.972 26.355 73.3282 26.4856 73.6131 26.5687L73.2866 27.7143Z" fill="#31EEE3"/>
<path d="M55.4969 32C54.2266 32 52.9741 31.7685 52.3271 31.1215C52.2042 31.0088 52.1112 30.8674 52.0563 30.7099C52.0014 30.5525 51.9863 30.3839 52.0125 30.2192C52.155 29.4654 53.1225 29.0321 54.47 28.4385C55.0635 28.1951 55.6156 27.9399 56.1261 27.6609L56.7196 28.6996C56.1617 29.0083 55.5325 29.2932 54.9686 29.5307C54.3885 29.7607 53.8286 30.0387 53.2947 30.3617C53.8289 30.7356 55.1704 30.9553 56.9333 30.7119L57.0936 31.8991C56.5641 31.9674 56.0307 32.0011 55.4969 32V32Z" fill="#31EEE3"/>
<path d="M76.2426 28.7709H73.8683C73.6001 28.7693 73.3435 28.6617 73.1544 28.4715C72.9653 28.2813 72.8592 28.024 72.8592 27.7558V26.4559C72.8592 26.1883 72.9655 25.9316 73.1547 25.7424C73.344 25.5531 73.6007 25.4468 73.8683 25.4468H76.2426C76.5102 25.4468 76.7669 25.5531 76.9562 25.7424C77.1454 25.9316 77.2517 26.1883 77.2517 26.4559V27.7558C77.2517 28.024 77.1456 28.2813 76.9565 28.4715C76.7674 28.6617 76.5108 28.7693 76.2426 28.7709ZM74.0464 27.5837H76.0645V26.6577H74.0464V27.5837Z" fill="#31EEE3"/>
<path d="M60.8926 30.3854C59.1092 30.3735 57.3851 29.7442 56.0133 28.6047L56.8028 27.744C57.9777 28.6951 59.4462 29.2091 60.9579 29.1983L60.8926 30.3854Z" fill="#31EEE3"/>
</svg>
