<svg width="32" height="32" viewBox="0 0 32 32" fill="none" xmlns="http://www.w3.org/2000/svg">
<g clip-path="url(#clip0_2_183)">
<path fill-rule="evenodd" clip-rule="evenodd" d="M23 2.492C24.664 0.781998 28.826 3.776 23 7.624C17.174 3.776 21.336 0.781998 23 2.492ZM18 10C18 11.5913 17.3679 13.1174 16.2426 14.2426C15.1174 15.3679 13.5913 16 12 16C10.4087 16 8.88258 15.3679 7.75736 14.2426C6.63214 13.1174 6 11.5913 6 10C6 8.4087 6.63214 6.88258 7.75736 5.75736C8.88258 4.63214 10.4087 4 12 4C13.5913 4 15.1174 4.63214 16.2426 5.75736C17.3679 6.88258 18 8.4087 18 10V10ZM0 26C0 28 2 28 2 28H22C22 28 24 28 24 26C24 24 22 18 12 18C2 18 0 24 0 26ZM27 9.82C29.774 6.97 36.71 11.96 27 18.374C17.292 11.96 24.226 6.97 27 9.822V9.82ZM30 4.33C31.11 3.19 33.884 5.186 30 7.752C26.116 5.186 28.89 3.19 30 4.332V4.33Z" fill="#31EEE3"/>
</g>
<defs>
<clipPath id="clip0_2_183">
<rect width="32" height="32" fill="white"/>
</clipPath>
</defs>
</svg>
