<svg width="118" height="32" viewBox="0 0 118 32" fill="none" xmlns="http://www.w3.org/2000/svg">
<path d="M71.8169 25.6933C70.8785 25.309 70.4771 24.799 70.5159 24.038C70.5559 23.1498 70.052 22.4992 69.8126 22.2421C69.9572 21.6898 70.3797 19.7793 69.8131 18.1198C69.2041 16.3435 67.3449 13.6306 65.4266 10.9639C64.6413 9.86876 64.6042 8.67835 64.5612 7.29993C64.5201 5.98519 64.4737 4.49493 63.7406 2.83826C62.9434 1.03439 61.3438 0 59.3517 0C58.1667 0 56.9502 0.370363 56.0141 1.01603C54.0973 2.33895 54.3507 5.22327 54.5183 7.13185C54.5413 7.3932 54.5629 7.64008 54.5755 7.85086C54.6871 9.72009 54.5856 10.7053 54.4527 11.0047C54.3668 11.2004 53.9438 11.7573 53.4961 12.3469C53.0331 12.9567 52.5082 13.6479 52.0779 14.292C51.5645 15.0671 51.1501 16.2517 50.7493 17.3973C50.4561 18.2356 50.1791 19.0274 49.9094 19.5006C49.3984 20.4109 49.5255 21.2597 49.6317 21.652C49.4382 21.7864 49.1587 22.051 48.9228 22.5498C48.6376 23.1583 48.059 23.4853 46.8558 23.7167C46.3029 23.8298 45.9216 24.0623 45.7222 24.4077C45.4321 24.9103 45.5901 25.5419 45.7343 25.9736C45.9473 26.6081 45.8146 27.0098 45.5733 27.7389C45.5176 27.9072 45.4546 28.0978 45.3907 28.3079C45.2901 28.6396 45.3264 28.9411 45.4983 29.2041C45.9527 29.8988 47.2787 30.1438 48.6437 30.3049C49.4587 30.4017 50.3507 30.7277 51.2135 31.043C52.0588 31.3519 52.9329 31.6714 53.7274 31.7683C53.8482 31.7836 53.9678 31.7912 54.0831 31.7912C55.2827 31.7912 55.8248 30.9952 55.9966 30.6682C56.4275 30.5802 57.9137 30.2986 59.4454 30.2609C60.9747 30.2172 62.4544 30.5192 62.8735 30.6131C63.0053 30.8653 63.3527 31.4414 63.9064 31.7382C64.2108 31.9046 64.6344 32 65.0682 32C65.0683 32 65.0682 32 65.0683 32C65.5316 32 66.4131 31.8905 67.1107 31.1566C67.8065 30.4192 69.545 29.4779 70.8145 28.7905C71.0978 28.6371 71.3628 28.4936 71.5952 28.364C72.3083 27.9687 72.6975 27.4038 72.6628 26.8143C72.6338 26.3246 72.3097 25.8951 71.8169 25.6933ZM56.0298 25.5514C55.941 24.9261 55.1366 24.3059 54.205 23.5878C53.4433 23.0006 52.5799 22.3351 52.3421 21.7715C51.8505 20.6088 52.238 18.5643 52.9136 17.5116C53.2474 16.9845 53.5201 16.1851 53.7839 15.412C54.0686 14.5773 54.3631 13.7142 54.6925 13.3364C55.214 12.7466 55.696 11.5989 55.7814 10.6944C56.2698 11.1606 57.0274 11.7523 57.7274 11.7523C57.8351 11.7523 57.9397 11.7382 58.0397 11.71C58.5185 11.5717 59.2229 11.1647 59.904 10.7713C60.4912 10.432 61.2154 10.0135 61.4879 9.97546C61.9551 10.6463 64.6698 16.6541 64.9472 18.5834C65.1667 20.11 64.9349 21.3719 64.8183 21.8662C64.7245 21.8534 64.6127 21.843 64.4951 21.843C63.739 21.843 63.5388 22.2558 63.4867 22.5022C63.3526 23.1426 63.3384 25.19 63.3369 25.6501C63.0635 25.9975 61.6808 27.6334 59.6956 27.9275C58.887 28.045 58.1319 28.1046 57.4514 28.1046C56.8698 28.1046 56.4985 28.0597 56.3444 28.0363L55.3469 26.8949C55.7402 26.7007 56.1334 26.2908 56.0298 25.5514ZM57.2956 6.73043C57.2645 6.74386 57.2338 6.75823 57.2037 6.77355C57.2007 6.70599 57.1936 6.63747 57.1828 6.56875C57.0739 5.94186 56.6582 5.48683 56.1946 5.48683C56.1603 5.48683 56.1258 5.48945 56.0879 5.49522C55.8121 5.54118 55.5957 5.74839 55.4772 6.04216C55.5811 5.39754 55.9464 4.92027 56.3797 4.92027C56.8885 4.92027 57.3184 5.60602 57.3184 6.41767C57.3184 6.51996 57.3109 6.62174 57.2956 6.73043ZM61.2496 7.21379C61.2962 7.06544 61.3213 6.90491 61.3213 6.7383C61.3213 6.0024 60.8545 5.42587 60.2584 5.42587C59.6759 5.42587 59.202 6.01457 59.202 6.7383C59.202 6.78761 59.2044 6.83703 59.209 6.88634C59.1782 6.87448 59.1481 6.86294 59.1187 6.85182C59.0516 6.6488 59.0178 6.43697 59.0178 6.22074C59.0178 5.34078 59.5801 4.62482 60.2715 4.62482C60.9628 4.62482 61.5253 5.34078 61.5253 6.22074C61.5253 6.5868 61.4243 6.93618 61.2496 7.21379ZM60.7398 8.92649C60.7298 8.97097 60.7086 8.9907 60.4742 9.11261C60.3559 9.1742 60.2086 9.25089 60.0242 9.36316L59.9011 9.43775C59.4061 9.73782 58.247 10.4407 57.9324 10.4819C57.7186 10.5107 57.5865 10.4278 57.2892 10.2258C57.2222 10.1802 57.1508 10.1317 57.0748 10.0829C56.5389 9.73132 56.1943 9.34406 56.1554 9.19266C56.33 9.05763 56.763 8.71969 56.9847 8.51961C57.4347 8.10119 57.8876 7.82001 58.1117 7.82001C58.1235 7.82001 58.1342 7.82085 58.1454 7.82295C58.4087 7.86943 59.0583 8.12868 59.5327 8.31796C59.752 8.40546 59.9414 8.481 60.0746 8.52884C60.4944 8.673 60.7132 8.85745 60.7398 8.92649ZM64.5113 28.4802C64.7481 27.412 65.0209 25.9589 64.9767 25.1022C64.9665 24.9076 64.9493 24.6958 64.9327 24.491C64.9015 24.108 64.8552 23.5388 64.903 23.37C64.9124 23.3656 64.9229 23.3618 64.9345 23.3586C64.9365 23.8483 65.0429 24.8252 65.8241 25.1659C66.057 25.2675 66.323 25.3189 66.6149 25.3189C67.3975 25.3189 68.2658 24.935 68.6215 24.5793C68.8309 24.3699 69.0071 24.1137 69.1305 23.9108C69.1574 23.9898 69.174 24.093 69.1653 24.226C69.1188 24.9484 69.4699 25.9067 70.138 26.2599L70.2353 26.311C70.4732 26.4358 71.1052 26.7677 71.1154 26.9251C71.1153 26.9252 71.1101 26.9437 71.0748 26.9764C70.9165 27.1211 70.3593 27.4056 69.8204 27.6808C68.8645 28.1689 67.781 28.7221 67.2944 29.2339C66.6093 29.9549 65.8343 30.4392 65.3664 30.4392C65.31 30.4392 65.2587 30.4321 65.2131 30.4176C64.7049 30.2592 64.2866 29.5259 64.5113 28.4802ZM47.1881 25.7551C47.1362 25.5126 47.0953 25.3211 47.1393 25.1356C47.1712 24.9981 47.8497 24.8508 48.1395 24.788C48.5469 24.6995 48.9682 24.6082 49.2437 24.4409C49.6163 24.2152 49.8181 23.799 49.996 23.4318C50.1248 23.1663 50.2579 22.8917 50.4162 22.8016C50.4251 22.7963 50.4388 22.7902 50.4648 22.7902C50.7614 22.7902 51.3838 23.4138 51.7424 23.9718C51.8333 24.1125 52.0018 24.3944 52.1968 24.7208C52.7798 25.6964 53.5781 27.0325 53.9951 27.4803C54.3708 27.8829 54.979 28.6569 54.8294 29.3207C54.7199 29.8357 54.1367 30.2546 53.9992 30.3472C53.9492 30.3585 53.8874 30.3643 53.8147 30.3643C53.0167 30.3643 51.4371 29.7004 50.5884 29.3437L50.4628 29.2909C49.9889 29.0922 49.2152 28.967 48.467 28.8459C47.8717 28.7495 47.0565 28.6176 46.9214 28.4984C46.8118 28.3756 46.9389 27.9762 47.0509 27.6237C47.1316 27.3705 47.2149 27.1086 47.2606 26.8344C47.3253 26.3971 47.2491 26.0411 47.1881 25.7551Z" fill="#31EEE3"/>
<g clip-path="url(#clip0_20_66)">
<path d="M22.364 0.016014C22.296 -0.059986 19.846 0.0460141 17.714 2.36001C15.582 4.67201 15.91 7.32401 15.958 7.39201C16.006 7.46001 18.998 7.56601 20.908 4.87601C22.818 2.18601 22.432 0.094014 22.364 0.016014V0.016014ZM28.992 23.482C28.896 23.29 24.342 21.014 24.766 16.638C25.19 12.26 28.116 11.06 28.162 10.93C28.208 10.8 26.968 9.35001 25.654 8.61601C24.6892 8.09852 23.6214 7.80203 22.528 7.74801C22.312 7.74201 21.562 7.55801 20.02 7.98001C19.004 8.25801 16.714 9.15801 16.084 9.19401C15.452 9.23001 13.572 8.15001 11.55 7.86401C10.256 7.61401 8.88397 8.12601 7.90197 8.52001C6.92197 8.91201 5.05797 10.028 3.75397 12.994C2.44997 15.958 3.13197 20.654 3.61997 22.114C4.10797 23.572 4.86997 25.962 6.16597 27.706C7.31797 29.674 8.84597 31.04 9.48397 31.504C10.122 31.968 11.922 32.276 13.17 31.638C14.174 31.022 15.986 30.668 16.702 30.694C17.416 30.72 18.824 31.002 20.266 31.772C21.408 32.166 22.488 32.002 23.57 31.562C24.652 31.12 26.218 29.444 28.046 26.046C28.74 24.466 29.056 23.612 28.992 23.482V23.482Z" fill="#31EEE3"/>
<path d="M22.364 0.016014C22.296 -0.059986 19.846 0.0460141 17.714 2.36001C15.582 4.67201 15.91 7.32401 15.958 7.39201C16.006 7.46001 18.998 7.56601 20.908 4.87601C22.818 2.18601 22.432 0.094014 22.364 0.016014V0.016014ZM28.992 23.482C28.896 23.29 24.342 21.014 24.766 16.638C25.19 12.26 28.116 11.06 28.162 10.93C28.208 10.8 26.968 9.35001 25.654 8.61601C24.6892 8.09852 23.6214 7.80203 22.528 7.74801C22.312 7.74201 21.562 7.55801 20.02 7.98001C19.004 8.25801 16.714 9.15801 16.084 9.19401C15.452 9.23001 13.572 8.15001 11.55 7.86401C10.256 7.61401 8.88397 8.12601 7.90197 8.52001C6.92197 8.91201 5.05797 10.028 3.75397 12.994C2.44997 15.958 3.13197 20.654 3.61997 22.114C4.10797 23.572 4.86997 25.962 6.16597 27.706C7.31797 29.674 8.84597 31.04 9.48397 31.504C10.122 31.968 11.922 32.276 13.17 31.638C14.174 31.022 15.986 30.668 16.702 30.694C17.416 30.72 18.824 31.002 20.266 31.772C21.408 32.166 22.488 32.002 23.57 31.562C24.652 31.12 26.218 29.444 28.046 26.046C28.74 24.466 29.056 23.612 28.992 23.482V23.482Z" fill="#31EEE3"/>
</g>
<path d="M99.11 2.75L86 4.474V15.374H99.11V2.75ZM86 27.59L99.11 29.456V16.626H86V27.59V27.59ZM100.556 16.79L100.608 29.546L118 32V16.79H100.556ZM118 0L100.66 2.488V15.316H118V0Z" fill="#31EEE3"/>
<defs>
<clipPath id="clip0_20_66">
<rect width="32" height="32" fill="white"/>
</clipPath>
</defs>
</svg>
