<svg width="87" height="33" viewBox="0 0 87 33" fill="none" xmlns="http://www.w3.org/2000/svg">
<path d="M26.172 13L20.808 7.63598L22.222 6.22198L30 14L22.222 21.778L20.808 20.364L26.172 15H14V13H26.172Z" fill="#31EEE3"/>
<path d="M36.3598 18C36.2731 18 36.1951 17.9697 36.1258 17.909C36.0651 17.8397 36.0348 17.7617 36.0348 17.675V11.487L34.2538 12.852C34.1758 12.9127 34.0935 12.9343 34.0068 12.917C33.9288 12.8997 33.8595 12.852 33.7988 12.774L33.0318 11.773C32.9798 11.695 32.9581 11.6127 32.9668 11.526C32.9841 11.4307 33.0361 11.357 33.1228 11.305L36.1128 8.991C36.1648 8.95633 36.2125 8.93467 36.2558 8.926C36.3078 8.90867 36.3641 8.9 36.4248 8.9H38.0498C38.1451 8.9 38.2231 8.93033 38.2838 8.991C38.3445 9.05167 38.3748 9.12967 38.3748 9.225V17.675C38.3748 17.7617 38.3445 17.8397 38.2838 17.909C38.2231 17.9697 38.1451 18 38.0498 18H36.3598ZM40.7417 18C40.6464 18 40.564 17.9697 40.4947 17.909C40.434 17.8397 40.4037 17.7617 40.4037 17.675V16.752C40.4037 16.6913 40.421 16.6003 40.4557 16.479C40.4904 16.349 40.5814 16.2277 40.7287 16.115L42.0807 14.789C42.774 14.2603 43.3417 13.814 43.7837 13.45C44.2344 13.0773 44.568 12.748 44.7847 12.462C45.0014 12.176 45.1097 11.9073 45.1097 11.656C45.1097 11.3613 45.0317 11.1187 44.8757 10.928C44.7284 10.7287 44.4684 10.629 44.0957 10.629C43.8444 10.629 43.6364 10.6853 43.4717 10.798C43.307 10.902 43.177 11.0407 43.0817 11.214C42.995 11.3873 42.9344 11.565 42.8997 11.747C42.865 11.8597 42.8044 11.9377 42.7177 11.981C42.6397 12.0243 42.553 12.046 42.4577 12.046H40.8327C40.7547 12.046 40.6897 12.02 40.6377 11.968C40.5857 11.916 40.5597 11.851 40.5597 11.773C40.5684 11.357 40.655 10.967 40.8197 10.603C40.993 10.2303 41.2314 9.90533 41.5347 9.628C41.8467 9.35067 42.215 9.134 42.6397 8.978C43.073 8.81333 43.5584 8.731 44.0957 8.731C44.8324 8.731 45.4564 8.85233 45.9677 9.095C46.4877 9.329 46.882 9.65833 47.1507 10.083C47.4194 10.499 47.5537 10.9887 47.5537 11.552C47.5537 11.9767 47.4584 12.3753 47.2677 12.748C47.0857 13.112 46.8214 13.463 46.4747 13.801C46.1367 14.1303 45.7337 14.4727 45.2657 14.828L44.0697 16.037H47.4107C47.506 16.037 47.584 16.0673 47.6447 16.128C47.714 16.1887 47.7487 16.2667 47.7487 16.362V17.675C47.7487 17.7617 47.714 17.8397 47.6447 17.909C47.584 17.9697 47.506 18 47.4107 18H40.7417ZM53.2008 18.13C52.5334 18.13 51.9571 18.052 51.4718 17.896C50.9951 17.7313 50.6051 17.5233 50.3018 17.272C49.9984 17.012 49.7731 16.739 49.6258 16.453C49.4784 16.1583 49.4004 15.8767 49.3918 15.608C49.3918 15.53 49.4178 15.465 49.4698 15.413C49.5304 15.361 49.5998 15.335 49.6778 15.335H51.3808C51.4761 15.335 51.5541 15.3567 51.6148 15.4C51.6754 15.4347 51.7318 15.4953 51.7838 15.582C51.8531 15.7467 51.9528 15.881 52.0828 15.985C52.2214 16.089 52.3861 16.1627 52.5768 16.206C52.7674 16.2407 52.9754 16.258 53.2008 16.258C53.6428 16.258 53.9851 16.1583 54.2278 15.959C54.4791 15.751 54.6048 15.4693 54.6048 15.114C54.6048 14.7413 54.4878 14.477 54.2538 14.321C54.0198 14.1563 53.6861 14.074 53.2528 14.074H51.8098C51.7144 14.074 51.6364 14.0437 51.5758 13.983C51.5151 13.9223 51.4848 13.8443 51.4848 13.749V13.021C51.4848 12.917 51.5064 12.826 51.5498 12.748C51.5931 12.67 51.6408 12.6137 51.6928 12.579L53.8248 10.772H50.2108C50.1241 10.772 50.0461 10.7417 49.9768 10.681C49.9161 10.6203 49.8858 10.5423 49.8858 10.447V9.225C49.8858 9.12967 49.9161 9.05167 49.9768 8.991C50.0461 8.93033 50.1241 8.9 50.2108 8.9H56.1908C56.2861 8.9 56.3641 8.93033 56.4248 8.991C56.4941 9.05167 56.5288 9.12967 56.5288 9.225V10.33C56.5288 10.4253 56.5071 10.512 56.4638 10.59C56.4204 10.6593 56.3728 10.7157 56.3208 10.759L54.3448 12.592L54.4358 12.618C54.9384 12.6787 55.3804 12.8087 55.7618 13.008C56.1518 13.2073 56.4594 13.4933 56.6848 13.866C56.9101 14.23 57.0228 14.6937 57.0228 15.257C57.0228 15.8463 56.8538 16.3577 56.5158 16.791C56.1864 17.2157 55.7358 17.545 55.1638 17.779C54.5918 18.013 53.9374 18.13 53.2008 18.13ZM63.2521 18C63.1655 18 63.0875 17.9697 63.0181 17.909C62.9575 17.8397 62.9271 17.7617 62.9271 17.675V16.206H58.8841C58.7975 16.206 58.7195 16.1757 58.6501 16.115C58.5895 16.0543 58.5591 15.9763 58.5591 15.881V14.646C58.5591 14.568 58.5721 14.4987 58.5981 14.438C58.6328 14.3687 58.6675 14.3037 58.7021 14.243L62.4851 9.121C62.5978 8.97367 62.7581 8.9 62.9661 8.9H64.8641C64.9508 8.9 65.0245 8.93033 65.0851 8.991C65.1545 9.05167 65.1891 9.12967 65.1891 9.225V14.269H66.3331C66.4371 14.269 66.5195 14.3037 66.5801 14.373C66.6408 14.4337 66.6711 14.5073 66.6711 14.594V15.881C66.6711 15.9763 66.6365 16.0543 66.5671 16.115C66.5065 16.1757 66.4328 16.206 66.3461 16.206H65.1891V17.675C65.1891 17.7617 65.1545 17.8397 65.0851 17.909C65.0245 17.9697 64.9508 18 64.8641 18H63.2521ZM60.7951 14.36H62.9791V11.292L60.7951 14.36ZM71.8791 18.143C71.0645 18.143 70.3841 18.0173 69.8381 17.766C69.2921 17.506 68.8761 17.1723 68.5901 16.765C68.3128 16.349 68.1655 15.9027 68.1481 15.426C68.1481 15.348 68.1741 15.283 68.2261 15.231C68.2781 15.179 68.3431 15.153 68.4211 15.153H70.1631C70.2758 15.153 70.3625 15.1747 70.4231 15.218C70.4925 15.2613 70.5445 15.322 70.5791 15.4C70.6571 15.5993 70.7611 15.764 70.8911 15.894C71.0211 16.024 71.1685 16.1193 71.3331 16.18C71.4978 16.2407 71.6841 16.271 71.8921 16.271C72.1348 16.271 72.3601 16.219 72.5681 16.115C72.7761 16.011 72.9408 15.8593 73.0621 15.66C73.1921 15.452 73.2571 15.205 73.2571 14.919C73.2571 14.659 73.1965 14.4337 73.0751 14.243C72.9625 14.0523 72.8021 13.9007 72.5941 13.788C72.3948 13.6753 72.1608 13.619 71.8921 13.619C71.6841 13.619 71.5151 13.645 71.3851 13.697C71.2551 13.7403 71.1468 13.7967 71.0601 13.866C70.9735 13.9353 70.8955 13.996 70.8261 14.048C70.7568 14.0913 70.6788 14.113 70.5921 14.113H68.8891C68.8111 14.113 68.7418 14.087 68.6811 14.035C68.6291 13.9743 68.6031 13.905 68.6031 13.827L69.0711 9.29C69.0885 9.16 69.1361 9.06467 69.2141 9.004C69.2921 8.93467 69.3875 8.9 69.5001 8.9H74.7131C74.8085 8.9 74.8865 8.93033 74.9471 8.991C75.0165 9.05167 75.0511 9.12967 75.0511 9.225V10.447C75.0511 10.5423 75.0165 10.6203 74.9471 10.681C74.8865 10.7417 74.8085 10.772 74.7131 10.772H70.9431L70.7741 12.449C70.9648 12.3277 71.1858 12.2237 71.4371 12.137C71.6971 12.0503 72.0525 12.007 72.5031 12.007C72.9105 12.007 73.3005 12.0807 73.6731 12.228C74.0545 12.3667 74.3925 12.566 74.6871 12.826C74.9905 13.086 75.2245 13.398 75.3891 13.762C75.5625 14.1173 75.6491 14.5203 75.6491 14.971C75.6491 15.5863 75.4975 16.1323 75.1941 16.609C74.8995 17.0857 74.4705 17.4627 73.9071 17.74C73.3438 18.0087 72.6678 18.143 71.8791 18.143ZM81.0764 18.13C80.3051 18.13 79.6291 17.9913 79.0484 17.714C78.4678 17.4367 78.0128 17.0553 77.6834 16.57C77.3628 16.076 77.2024 15.5127 77.2024 14.88C77.2024 14.6113 77.2414 14.347 77.3194 14.087C77.4061 13.8183 77.5101 13.567 77.6314 13.333C77.7528 13.0903 77.8741 12.878 77.9954 12.696C78.1168 12.5053 78.2164 12.3537 78.2944 12.241L80.5824 9.16C80.6258 9.11667 80.6821 9.06467 80.7514 9.004C80.8208 8.93467 80.9204 8.9 81.0504 8.9H82.7794C82.8574 8.9 82.9224 8.93033 82.9744 8.991C83.0264 9.043 83.0524 9.108 83.0524 9.186C83.0524 9.22067 83.0481 9.25533 83.0394 9.29C83.0308 9.316 83.0178 9.33767 83.0004 9.355L81.2454 11.747C81.2974 11.7297 81.3581 11.721 81.4274 11.721C81.5054 11.7123 81.5748 11.708 81.6354 11.708C82.0254 11.7253 82.4111 11.812 82.7924 11.968C83.1738 12.124 83.5204 12.3363 83.8324 12.605C84.1444 12.8737 84.3914 13.1987 84.5734 13.58C84.7641 13.9527 84.8594 14.3687 84.8594 14.828C84.8594 15.4347 84.7034 15.9893 84.3914 16.492C84.0794 16.986 83.6374 17.3847 83.0654 17.688C82.5021 17.9827 81.8391 18.13 81.0764 18.13ZM81.0504 16.258C81.3018 16.258 81.5358 16.206 81.7524 16.102C81.9691 15.9893 82.1424 15.829 82.2724 15.621C82.4111 15.413 82.4804 15.1617 82.4804 14.867C82.4804 14.5637 82.4154 14.3123 82.2854 14.113C82.1554 13.905 81.9821 13.749 81.7654 13.645C81.5488 13.541 81.3104 13.489 81.0504 13.489C80.7904 13.489 80.5478 13.541 80.3224 13.645C80.1058 13.749 79.9324 13.905 79.8024 14.113C79.6724 14.3123 79.6074 14.5637 79.6074 14.867C79.6074 15.1617 79.6724 15.413 79.8024 15.621C79.9411 15.829 80.1188 15.9893 80.3354 16.102C80.5521 16.206 80.7904 16.258 81.0504 16.258Z" fill="#31EEE3"/>
<path fill-rule="evenodd" clip-rule="evenodd" d="M11.9319 22.7549C11.9319 22.4542 11.6816 22.2101 11.3733 22.2101H3.62685C3.31855 22.2101 3.0683 22.4542 3.0683 22.7549L3.0683 32.4551C3.0683 32.7559 3.31855 33 3.62685 33H11.3733C11.6816 33 11.9319 32.7559 11.9319 32.4551L11.9319 22.7549ZM10.5886 25.9053H4.41155L4.41155 31.2526C4.41155 31.4621 4.58595 31.6323 4.80077 31.6323H10.1994C10.4142 31.6323 10.5886 31.4621 10.5886 31.2526L10.5886 25.9053Z" fill="#31EEE3"/>
<path d="M8.1715 25.4894H6.82825L6.82825 32.0482H8.1715L8.1715 25.4894Z" fill="#31EEE3"/>
<path fill-rule="evenodd" clip-rule="evenodd" d="M15 1.9221C15 1.4132 14.5764 1 14.0548 1L0.945228 1C0.423561 1 0 1.4132 0 1.9221L0 24.9834C0 25.4923 0.423561 25.9055 0.945228 25.9055L14.0548 25.9055C14.5764 25.9055 15 25.4923 15 24.9834L15 1.9221ZM7.5 9.46197C10.0923 9.46197 12.197 11.5151 12.197 14.044C12.197 16.5729 10.0923 18.626 7.5 18.626C4.90765 18.626 2.80303 16.5729 2.80303 14.044C2.80303 11.5151 4.90765 9.46197 7.5 9.46197ZM7.5 3.18016C8.42545 3.18016 9.17689 3.91313 9.17689 4.81602C9.17689 5.71882 8.42545 6.4518 7.5 6.4518C6.57455 6.4518 5.82311 5.71882 5.82311 4.81602C5.82311 3.91313 6.57455 3.18016 7.5 3.18016Z" fill="#31EEE3"/>
<path d="M7.5399 13.9998L8.51353 11.3047H9.92195L7.54784 17.0046H6.06004L6.74124 15.4431L5.07794 11.3089H6.51547L7.5399 13.9998Z" fill="#31EEE3"/>
</svg>
