<svg width="32" height="32" viewBox="0 0 32 32" fill="none" xmlns="http://www.w3.org/2000/svg">
<path d="M10 0C10.2652 0 10.5196 0.105357 10.7071 0.292893C10.8946 0.48043 11 0.734784 11 1V4H13V1C13 0.734784 13.1054 0.48043 13.2929 0.292893C13.4804 0.105357 13.7348 0 14 0C14.2652 0 14.5196 0.105357 14.7071 0.292893C14.8946 0.48043 15 0.734784 15 1V4H17V1C17 0.734784 17.1054 0.48043 17.2929 0.292893C17.4804 0.105357 17.7348 0 18 0C18.2652 0 18.5196 0.105357 18.7071 0.292893C18.8946 0.48043 19 0.734784 19 1V4H21V1C21 0.734784 21.1054 0.48043 21.2929 0.292893C21.4804 0.105357 21.7348 0 22 0C22.2652 0 22.5196 0.105357 22.7071 0.292893C22.8946 0.48043 23 0.734784 23 1V4C24.3261 4 25.5979 4.52678 26.5355 5.46447C27.4732 6.40215 28 7.67392 28 9H31C31.2652 9 31.5196 9.10536 31.7071 9.29289C31.8946 9.48043 32 9.73478 32 10C32 10.2652 31.8946 10.5196 31.7071 10.7071C31.5196 10.8946 31.2652 11 31 11H28V13H31C31.2652 13 31.5196 13.1054 31.7071 13.2929C31.8946 13.4804 32 13.7348 32 14C32 14.2652 31.8946 14.5196 31.7071 14.7071C31.5196 14.8946 31.2652 15 31 15H28V17H31C31.2652 17 31.5196 17.1054 31.7071 17.2929C31.8946 17.4804 32 17.7348 32 18C32 18.2652 31.8946 18.5196 31.7071 18.7071C31.5196 18.8946 31.2652 19 31 19H28V21H31C31.2652 21 31.5196 21.1054 31.7071 21.2929C31.8946 21.4804 32 21.7348 32 22C32 22.2652 31.8946 22.5196 31.7071 22.7071C31.5196 22.8946 31.2652 23 31 23H28C28 24.3261 27.4732 25.5979 26.5355 26.5355C25.5979 27.4732 24.3261 28 23 28V31C23 31.2652 22.8946 31.5196 22.7071 31.7071C22.5196 31.8946 22.2652 32 22 32C21.7348 32 21.4804 31.8946 21.2929 31.7071C21.1054 31.5196 21 31.2652 21 31V28H19V31C19 31.2652 18.8946 31.5196 18.7071 31.7071C18.5196 31.8946 18.2652 32 18 32C17.7348 32 17.4804 31.8946 17.2929 31.7071C17.1054 31.5196 17 31.2652 17 31V28H15V31C15 31.2652 14.8946 31.5196 14.7071 31.7071C14.5196 31.8946 14.2652 32 14 32C13.7348 32 13.4804 31.8946 13.2929 31.7071C13.1054 31.5196 13 31.2652 13 31V28H11V31C11 31.2652 10.8946 31.5196 10.7071 31.7071C10.5196 31.8946 10.2652 32 10 32C9.73478 32 9.48043 31.8946 9.29289 31.7071C9.10536 31.5196 9 31.2652 9 31V28C7.67392 28 6.40215 27.4732 5.46447 26.5355C4.52678 25.5979 4 24.3261 4 23H1C0.734784 23 0.48043 22.8946 0.292893 22.7071C0.105357 22.5196 0 22.2652 0 22C0 21.7348 0.105357 21.4804 0.292893 21.2929C0.48043 21.1054 0.734784 21 1 21H4V19H1C0.734784 19 0.48043 18.8946 0.292893 18.7071C0.105357 18.5196 0 18.2652 0 18C0 17.7348 0.105357 17.4804 0.292893 17.2929C0.48043 17.1054 0.734784 17 1 17H4V15H1C0.734784 15 0.48043 14.8946 0.292893 14.7071C0.105357 14.5196 0 14.2652 0 14C0 13.7348 0.105357 13.4804 0.292893 13.2929C0.48043 13.1054 0.734784 13 1 13H4V11H1C0.734784 11 0.48043 10.8946 0.292893 10.7071C0.105357 10.5196 0 10.2652 0 10C0 9.73478 0.105357 9.48043 0.292893 9.29289C0.48043 9.10536 0.734784 9 1 9H4C4 7.67392 4.52678 6.40215 5.46447 5.46447C6.40215 4.52678 7.67392 4 9 4V1C9 0.734784 9.10536 0.48043 9.29289 0.292893C9.48043 0.105357 9.73478 0 10 0V0ZM9 6C8.20435 6 7.44129 6.31607 6.87868 6.87868C6.31607 7.44129 6 8.20435 6 9V23C6 23.7956 6.31607 24.5587 6.87868 25.1213C7.44129 25.6839 8.20435 26 9 26H23C23.7956 26 24.5587 25.6839 25.1213 25.1213C25.6839 24.5587 26 23.7956 26 23V9C26 8.20435 25.6839 7.44129 25.1213 6.87868C24.5587 6.31607 23.7956 6 23 6H9ZM10 13C10 12.2044 10.3161 11.4413 10.8787 10.8787C11.4413 10.3161 12.2044 10 13 10H19C19.7956 10 20.5587 10.3161 21.1213 10.8787C21.6839 11.4413 22 12.2044 22 13V19C22 19.7956 21.6839 20.5587 21.1213 21.1213C20.5587 21.6839 19.7956 22 19 22H13C12.2044 22 11.4413 21.6839 10.8787 21.1213C10.3161 20.5587 10 19.7956 10 19V13ZM13 12C12.7348 12 12.4804 12.1054 12.2929 12.2929C12.1054 12.4804 12 12.7348 12 13V19C12 19.2652 12.1054 19.5196 12.2929 19.7071C12.4804 19.8946 12.7348 20 13 20H19C19.2652 20 19.5196 19.8946 19.7071 19.7071C19.8946 19.5196 20 19.2652 20 19V13C20 12.7348 19.8946 12.4804 19.7071 12.2929C19.5196 12.1054 19.2652 12 19 12H13Z" fill="#31EEE3"/>
</svg>
