<svg width="61" height="32" viewBox="0 0 61 32" fill="none" xmlns="http://www.w3.org/2000/svg">
<path fill-rule="evenodd" clip-rule="evenodd" d="M3 2C2.44772 2 2 2.44772 2 3V29C2 29.5523 2.44771 30 3 30H57.2353C57.7876 30 58.2353 29.5523 58.2353 29V3C58.2353 2.44771 57.7876 2 57.2353 2H3ZM3 0C1.34315 0 0 1.34315 0 3V29C0 30.6569 1.34314 32 3 32H57.2353C58.8921 32 60.2353 30.6569 60.2353 29V3C60.2353 1.34315 58.8922 0 57.2353 0H3Z" fill="#31EEE3"/>
<path d="M7.35979 20C7.27312 20 7.19512 19.9697 7.12579 19.909C7.06512 19.8397 7.03479 19.7617 7.03479 19.675V13.487L5.25379 14.852C5.17579 14.9127 5.09346 14.9343 5.00679 14.917C4.92879 14.8997 4.85946 14.852 4.79879 14.774L4.03179 13.773C3.97979 13.695 3.95812 13.6127 3.96679 13.526C3.98412 13.4307 4.03612 13.357 4.12279 13.305L7.11279 10.991C7.16479 10.9563 7.21246 10.9347 7.25579 10.926C7.30779 10.9087 7.36412 10.9 7.42479 10.9H9.04979C9.14512 10.9 9.22312 10.9303 9.28379 10.991C9.34446 11.0517 9.37479 11.1297 9.37479 11.225V19.675C9.37479 19.7617 9.34446 19.8397 9.28379 19.909C9.22312 19.9697 9.14512 20 9.04979 20H7.35979ZM11.7417 20C11.6464 20 11.564 19.9697 11.4947 19.909C11.434 19.8397 11.4037 19.7617 11.4037 19.675V18.752C11.4037 18.6913 11.421 18.6003 11.4557 18.479C11.4904 18.349 11.5814 18.2277 11.7287 18.115L13.0807 16.789C13.774 16.2603 14.3417 15.814 14.7837 15.45C15.2344 15.0773 15.568 14.748 15.7847 14.462C16.0014 14.176 16.1097 13.9073 16.1097 13.656C16.1097 13.3613 16.0317 13.1187 15.8757 12.928C15.7284 12.7287 15.4684 12.629 15.0957 12.629C14.8444 12.629 14.6364 12.6853 14.4717 12.798C14.307 12.902 14.177 13.0407 14.0817 13.214C13.995 13.3873 13.9344 13.565 13.8997 13.747C13.865 13.8597 13.8044 13.9377 13.7177 13.981C13.6397 14.0243 13.553 14.046 13.4577 14.046H11.8327C11.7547 14.046 11.6897 14.02 11.6377 13.968C11.5857 13.916 11.5597 13.851 11.5597 13.773C11.5684 13.357 11.655 12.967 11.8197 12.603C11.993 12.2303 12.2314 11.9053 12.5347 11.628C12.8467 11.3507 13.215 11.134 13.6397 10.978C14.073 10.8133 14.5584 10.731 15.0957 10.731C15.8324 10.731 16.4564 10.8523 16.9677 11.095C17.4877 11.329 17.882 11.6583 18.1507 12.083C18.4194 12.499 18.5537 12.9887 18.5537 13.552C18.5537 13.9767 18.4584 14.3753 18.2677 14.748C18.0857 15.112 17.8214 15.463 17.4747 15.801C17.1367 16.1303 16.7337 16.4727 16.2657 16.828L15.0697 18.037H18.4107C18.506 18.037 18.584 18.0673 18.6447 18.128C18.714 18.1887 18.7487 18.2667 18.7487 18.362V19.675C18.7487 19.7617 18.714 19.8397 18.6447 19.909C18.584 19.9697 18.506 20 18.4107 20H11.7417ZM24.2008 20.13C23.5334 20.13 22.9571 20.052 22.4718 19.896C21.9951 19.7313 21.6051 19.5233 21.3018 19.272C20.9984 19.012 20.7731 18.739 20.6258 18.453C20.4784 18.1583 20.4004 17.8767 20.3918 17.608C20.3918 17.53 20.4178 17.465 20.4698 17.413C20.5304 17.361 20.5998 17.335 20.6778 17.335H22.3808C22.4761 17.335 22.5541 17.3567 22.6148 17.4C22.6754 17.4347 22.7318 17.4953 22.7838 17.582C22.8531 17.7467 22.9528 17.881 23.0828 17.985C23.2214 18.089 23.3861 18.1627 23.5768 18.206C23.7674 18.2407 23.9754 18.258 24.2008 18.258C24.6428 18.258 24.9851 18.1583 25.2278 17.959C25.4791 17.751 25.6048 17.4693 25.6048 17.114C25.6048 16.7413 25.4878 16.477 25.2538 16.321C25.0198 16.1563 24.6861 16.074 24.2528 16.074H22.8098C22.7144 16.074 22.6364 16.0437 22.5758 15.983C22.5151 15.9223 22.4848 15.8443 22.4848 15.749V15.021C22.4848 14.917 22.5064 14.826 22.5498 14.748C22.5931 14.67 22.6408 14.6137 22.6928 14.579L24.8248 12.772H21.2108C21.1241 12.772 21.0461 12.7417 20.9768 12.681C20.9161 12.6203 20.8858 12.5423 20.8858 12.447V11.225C20.8858 11.1297 20.9161 11.0517 20.9768 10.991C21.0461 10.9303 21.1241 10.9 21.2108 10.9H27.1908C27.2861 10.9 27.3641 10.9303 27.4248 10.991C27.4941 11.0517 27.5288 11.1297 27.5288 11.225V12.33C27.5288 12.4253 27.5071 12.512 27.4638 12.59C27.4204 12.6593 27.3728 12.7157 27.3208 12.759L25.3448 14.592L25.4358 14.618C25.9384 14.6787 26.3804 14.8087 26.7618 15.008C27.1518 15.2073 27.4594 15.4933 27.6848 15.866C27.9101 16.23 28.0228 16.6937 28.0228 17.257C28.0228 17.8463 27.8538 18.3577 27.5158 18.791C27.1864 19.2157 26.7358 19.545 26.1638 19.779C25.5918 20.013 24.9374 20.13 24.2008 20.13ZM34.2521 20C34.1655 20 34.0875 19.9697 34.0181 19.909C33.9575 19.8397 33.9271 19.7617 33.9271 19.675V18.206H29.8841C29.7975 18.206 29.7195 18.1757 29.6501 18.115C29.5895 18.0543 29.5591 17.9763 29.5591 17.881V16.646C29.5591 16.568 29.5721 16.4987 29.5981 16.438C29.6328 16.3687 29.6675 16.3037 29.7021 16.243L33.4851 11.121C33.5978 10.9737 33.7581 10.9 33.9661 10.9H35.8641C35.9508 10.9 36.0245 10.9303 36.0851 10.991C36.1545 11.0517 36.1891 11.1297 36.1891 11.225V16.269H37.3331C37.4371 16.269 37.5195 16.3037 37.5801 16.373C37.6408 16.4337 37.6711 16.5073 37.6711 16.594V17.881C37.6711 17.9763 37.6365 18.0543 37.5671 18.115C37.5065 18.1757 37.4328 18.206 37.3461 18.206H36.1891V19.675C36.1891 19.7617 36.1545 19.8397 36.0851 19.909C36.0245 19.9697 35.9508 20 35.8641 20H34.2521ZM31.7951 16.36H33.9791V13.292L31.7951 16.36ZM42.8791 20.143C42.0645 20.143 41.3841 20.0173 40.8381 19.766C40.2921 19.506 39.8761 19.1723 39.5901 18.765C39.3128 18.349 39.1655 17.9027 39.1481 17.426C39.1481 17.348 39.1741 17.283 39.2261 17.231C39.2781 17.179 39.3431 17.153 39.4211 17.153H41.1631C41.2758 17.153 41.3625 17.1747 41.4231 17.218C41.4925 17.2613 41.5445 17.322 41.5791 17.4C41.6571 17.5993 41.7611 17.764 41.8911 17.894C42.0211 18.024 42.1685 18.1193 42.3331 18.18C42.4978 18.2407 42.6841 18.271 42.8921 18.271C43.1348 18.271 43.3601 18.219 43.5681 18.115C43.7761 18.011 43.9408 17.8593 44.0621 17.66C44.1921 17.452 44.2571 17.205 44.2571 16.919C44.2571 16.659 44.1965 16.4337 44.0751 16.243C43.9625 16.0523 43.8021 15.9007 43.5941 15.788C43.3948 15.6753 43.1608 15.619 42.8921 15.619C42.6841 15.619 42.5151 15.645 42.3851 15.697C42.2551 15.7403 42.1468 15.7967 42.0601 15.866C41.9735 15.9353 41.8955 15.996 41.8261 16.048C41.7568 16.0913 41.6788 16.113 41.5921 16.113H39.8891C39.8111 16.113 39.7418 16.087 39.6811 16.035C39.6291 15.9743 39.6031 15.905 39.6031 15.827L40.0711 11.29C40.0885 11.16 40.1361 11.0647 40.2141 11.004C40.2921 10.9347 40.3875 10.9 40.5001 10.9H45.7131C45.8085 10.9 45.8865 10.9303 45.9471 10.991C46.0165 11.0517 46.0511 11.1297 46.0511 11.225V12.447C46.0511 12.5423 46.0165 12.6203 45.9471 12.681C45.8865 12.7417 45.8085 12.772 45.7131 12.772H41.9431L41.7741 14.449C41.9648 14.3277 42.1858 14.2237 42.4371 14.137C42.6971 14.0503 43.0525 14.007 43.5031 14.007C43.9105 14.007 44.3005 14.0807 44.6731 14.228C45.0545 14.3667 45.3925 14.566 45.6871 14.826C45.9905 15.086 46.2245 15.398 46.3891 15.762C46.5625 16.1173 46.6491 16.5203 46.6491 16.971C46.6491 17.5863 46.4975 18.1323 46.1941 18.609C45.8995 19.0857 45.4705 19.4627 44.9071 19.74C44.3438 20.0087 43.6678 20.143 42.8791 20.143ZM52.0764 20.13C51.3051 20.13 50.6291 19.9913 50.0484 19.714C49.4678 19.4367 49.0128 19.0553 48.6834 18.57C48.3628 18.076 48.2024 17.5127 48.2024 16.88C48.2024 16.6113 48.2414 16.347 48.3194 16.087C48.4061 15.8183 48.5101 15.567 48.6314 15.333C48.7528 15.0903 48.8741 14.878 48.9954 14.696C49.1168 14.5053 49.2164 14.3537 49.2944 14.241L51.5824 11.16C51.6258 11.1167 51.6821 11.0647 51.7514 11.004C51.8208 10.9347 51.9204 10.9 52.0504 10.9H53.7794C53.8574 10.9 53.9224 10.9303 53.9744 10.991C54.0264 11.043 54.0524 11.108 54.0524 11.186C54.0524 11.2207 54.0481 11.2553 54.0394 11.29C54.0308 11.316 54.0178 11.3377 54.0004 11.355L52.2454 13.747C52.2974 13.7297 52.3581 13.721 52.4274 13.721C52.5054 13.7123 52.5748 13.708 52.6354 13.708C53.0254 13.7253 53.4111 13.812 53.7924 13.968C54.1738 14.124 54.5204 14.3363 54.8324 14.605C55.1444 14.8737 55.3914 15.1987 55.5734 15.58C55.7641 15.9527 55.8594 16.3687 55.8594 16.828C55.8594 17.4347 55.7034 17.9893 55.3914 18.492C55.0794 18.986 54.6374 19.3847 54.0654 19.688C53.5021 19.9827 52.8391 20.13 52.0764 20.13ZM52.0504 18.258C52.3018 18.258 52.5358 18.206 52.7524 18.102C52.9691 17.9893 53.1424 17.829 53.2724 17.621C53.4111 17.413 53.4804 17.1617 53.4804 16.867C53.4804 16.5637 53.4154 16.3123 53.2854 16.113C53.1554 15.905 52.9821 15.749 52.7654 15.645C52.5488 15.541 52.3104 15.489 52.0504 15.489C51.7904 15.489 51.5478 15.541 51.3224 15.645C51.1058 15.749 50.9324 15.905 50.8024 16.113C50.6724 16.3123 50.6074 16.5637 50.6074 16.867C50.6074 17.1617 50.6724 17.413 50.8024 17.621C50.9411 17.829 51.1188 17.9893 51.3354 18.102C51.5521 18.206 51.7904 18.258 52.0504 18.258Z" fill="#31EEE3"/>
</svg>
