<svg width="32" height="32" viewBox="0 0 32 32" fill="none" xmlns="http://www.w3.org/2000/svg">
<path fill-rule="evenodd" clip-rule="evenodd" d="M12 7C12 6.20435 12.3161 5.44129 12.8787 4.87868C13.4413 4.31607 14.2044 4 15 4H17C17.7956 4 18.5587 4.31607 19.1213 4.87868C19.6839 5.44129 20 6.20435 20 7V9C20 9.79565 19.6839 10.5587 19.1213 11.1213C18.5587 11.6839 17.7956 12 17 12V14H28C28.2652 14 28.5196 14.1054 28.7071 14.2929C28.8946 14.4804 29 14.7348 29 15V17C29 17.2652 28.8946 17.5196 28.7071 17.7071C28.5196 17.8946 28.2652 18 28 18C27.7348 18 27.4804 17.8946 27.2929 17.7071C27.1054 17.5196 27 17.2652 27 17V16H17V17C17 17.2652 16.8946 17.5196 16.7071 17.7071C16.5196 17.8946 16.2652 18 16 18C15.7348 18 15.4804 17.8946 15.2929 17.7071C15.1054 17.5196 15 17.2652 15 17V16H5V17C5 17.2652 4.89464 17.5196 4.70711 17.7071C4.51957 17.8946 4.26522 18 4 18C3.73478 18 3.48043 17.8946 3.29289 17.7071C3.10536 17.5196 3 17.2652 3 17V15C3 14.7348 3.10536 14.4804 3.29289 14.2929C3.48043 14.1054 3.73478 14 4 14H15V12C14.2044 12 13.4413 11.6839 12.8787 11.1213C12.3161 10.5587 12 9.79565 12 9V7ZM17 10C17.2652 10 17.5196 9.89464 17.7071 9.70711C17.8946 9.51957 18 9.26522 18 9V7C18 6.73478 17.8946 6.48043 17.7071 6.29289C17.5196 6.10536 17.2652 6 17 6H15C14.7348 6 14.4804 6.10536 14.2929 6.29289C14.1054 6.48043 14 6.73478 14 7V9C14 9.26522 14.1054 9.51957 14.2929 9.70711C14.4804 9.89464 14.7348 10 15 10H17ZM0 23C0 22.2044 0.31607 21.4413 0.87868 20.8787C1.44129 20.3161 2.20435 20 3 20H5C5.79565 20 6.55871 20.3161 7.12132 20.8787C7.68393 21.4413 8 22.2044 8 23V25C8 25.7956 7.68393 26.5587 7.12132 27.1213C6.55871 27.6839 5.79565 28 5 28H3C2.20435 28 1.44129 27.6839 0.87868 27.1213C0.31607 26.5587 0 25.7956 0 25L0 23ZM3 22C2.73478 22 2.48043 22.1054 2.29289 22.2929C2.10536 22.4804 2 22.7348 2 23V25C2 25.2652 2.10536 25.5196 2.29289 25.7071C2.48043 25.8946 2.73478 26 3 26H5C5.26522 26 5.51957 25.8946 5.70711 25.7071C5.89464 25.5196 6 25.2652 6 25V23C6 22.7348 5.89464 22.4804 5.70711 22.2929C5.51957 22.1054 5.26522 22 5 22H3ZM12 23C12 22.2044 12.3161 21.4413 12.8787 20.8787C13.4413 20.3161 14.2044 20 15 20H17C17.7956 20 18.5587 20.3161 19.1213 20.8787C19.6839 21.4413 20 22.2044 20 23V25C20 25.7956 19.6839 26.5587 19.1213 27.1213C18.5587 27.6839 17.7956 28 17 28H15C14.2044 28 13.4413 27.6839 12.8787 27.1213C12.3161 26.5587 12 25.7956 12 25V23ZM15 22C14.7348 22 14.4804 22.1054 14.2929 22.2929C14.1054 22.4804 14 22.7348 14 23V25C14 25.2652 14.1054 25.5196 14.2929 25.7071C14.4804 25.8946 14.7348 26 15 26H17C17.2652 26 17.5196 25.8946 17.7071 25.7071C17.8946 25.5196 18 25.2652 18 25V23C18 22.7348 17.8946 22.4804 17.7071 22.2929C17.5196 22.1054 17.2652 22 17 22H15ZM24 23C24 22.2044 24.3161 21.4413 24.8787 20.8787C25.4413 20.3161 26.2044 20 27 20H29C29.7956 20 30.5587 20.3161 31.1213 20.8787C31.6839 21.4413 32 22.2044 32 23V25C32 25.7956 31.6839 26.5587 31.1213 27.1213C30.5587 27.6839 29.7956 28 29 28H27C26.2044 28 25.4413 27.6839 24.8787 27.1213C24.3161 26.5587 24 25.7956 24 25V23ZM27 22C26.7348 22 26.4804 22.1054 26.2929 22.2929C26.1054 22.4804 26 22.7348 26 23V25C26 25.2652 26.1054 25.5196 26.2929 25.7071C26.4804 25.8946 26.7348 26 27 26H29C29.2652 26 29.5196 25.8946 29.7071 25.7071C29.8946 25.5196 30 25.2652 30 25V23C30 22.7348 29.8946 22.4804 29.7071 22.2929C29.5196 22.1054 29.2652 22 29 22H27Z" fill="#31EEE3"/>
</svg>
