<svg width="32" height="32" viewBox="0 0 32 32" fill="none" xmlns="http://www.w3.org/2000/svg">
<g clip-path="url(#clip0_5_274)">
<path fill-rule="evenodd" clip-rule="evenodd" d="M2 16C2.00037 12.8567 3.05851 9.80503 5.00407 7.33623C6.94962 4.86743 9.66938 3.12518 12.7255 2.38998C15.7815 1.65478 18.9961 1.96942 21.8517 3.28323C24.7072 4.59704 27.0375 6.83358 28.4675 9.63276C29.8974 12.4319 30.3437 15.6309 29.7346 18.7146C29.1255 21.7983 27.4964 24.5873 25.1096 26.6325C22.7227 28.6778 19.717 29.8604 16.5764 29.9898C13.4358 30.1192 10.343 29.188 7.796 27.346C7.462 27.104 7.364 26.534 7.792 26.106L11.392 22.506C12.7402 23.5147 14.4069 24.0036 16.0863 23.8831C17.7658 23.7626 19.3456 23.0408 20.536 21.85L23.364 19.02C23.5515 18.8325 23.6568 18.5782 23.6568 18.313C23.6568 18.0478 23.5515 17.7935 23.364 17.606L21.95 16.192L25.068 13.066C25.1634 12.9736 25.2394 12.8632 25.2916 12.7411C25.3438 12.619 25.3712 12.4878 25.3722 12.355C25.3732 12.2222 25.3477 12.0906 25.2972 11.9677C25.2468 11.8449 25.1724 11.7334 25.0783 11.6396C24.9843 11.5459 24.8726 11.4718 24.7496 11.4217C24.6266 11.3716 24.4949 11.3464 24.3622 11.3478C24.2294 11.3491 24.0982 11.3769 23.9763 11.4295C23.8544 11.482 23.7441 11.5584 23.652 11.654L20.534 14.778L17.706 11.95L20.826 8.826C20.9251 8.73463 21.0048 8.62417 21.0601 8.50125C21.1154 8.37832 21.1454 8.24548 21.1481 8.1107C21.1508 7.97592 21.1262 7.84198 21.0758 7.71694C21.0254 7.59191 20.9503 7.47834 20.8549 7.38309C20.7595 7.28783 20.6458 7.21285 20.5207 7.16264C20.3956 7.11243 20.2616 7.08804 20.1268 7.09093C19.9921 7.09381 19.8593 7.12392 19.7364 7.17944C19.6136 7.23496 19.5032 7.31475 19.412 7.414L16.292 10.534L14.878 9.122C14.6905 8.93453 14.4362 8.82921 14.171 8.82921C13.9058 8.82921 13.6515 8.93453 13.464 9.122L10.636 11.95C9.44571 13.1403 8.72421 14.7197 8.60373 16.3987C8.48325 18.0777 8.97185 19.7439 9.98 21.092L6.38 24.692C5.22 25.852 5.14 27.892 6.622 28.966C9.53263 31.0716 13.0672 32.1364 16.6565 31.989C20.2459 31.8416 23.6812 30.4905 26.4094 28.1534C29.1376 25.8162 30.9998 22.6289 31.6964 19.1047C32.3929 15.5805 31.8832 11.9244 30.2492 8.72511C28.6153 5.52581 25.9522 2.96947 22.6888 1.46768C19.4254 -0.0341184 15.7515 -0.393979 12.2587 0.446034C8.7659 1.28605 5.65741 3.27705 3.43373 6.09849C1.21004 8.91992 0.000554493 12.4076 0 16C0 16.2652 0.105357 16.5196 0.292893 16.7071C0.48043 16.8946 0.734784 17 1 17C1.26522 17 1.51957 16.8946 1.70711 16.7071C1.89464 16.5196 2 16.2652 2 16Z" fill="#31EEE3"/>
</g>
<defs>
<clipPath id="clip0_5_274">
<rect width="32" height="32" fill="white"/>
</clipPath>
</defs>
</svg>
