<svg width="32" height="32" viewBox="0 0 32 32" fill="none" xmlns="http://www.w3.org/2000/svg">
<path d="M23.068 14H30.932C31.027 14 31.12 14.0271 31.2002 14.0781C31.2803 14.1291 31.3443 14.2019 31.3846 14.288C31.4249 14.374 31.4398 14.4697 31.4277 14.564C31.4155 14.6582 31.3768 14.747 31.316 14.82L27.384 19.54C27.3371 19.5963 27.2783 19.6415 27.212 19.6726C27.1456 19.7037 27.0733 19.7198 27 19.7198C26.9267 19.7198 26.8543 19.7037 26.788 19.6726C26.7216 19.6415 26.6629 19.5963 26.616 19.54L22.684 14.82C22.6232 14.747 22.5844 14.6582 22.5723 14.564C22.5601 14.4697 22.5751 14.374 22.6154 14.288C22.6557 14.2019 22.7196 14.1291 22.7998 14.0781C22.88 14.0271 22.973 14 23.068 14V14ZM1.06799 18H8.93199C9.027 18 9.12003 17.9729 9.20019 17.9219C9.28035 17.8709 9.34432 17.7981 9.38461 17.7121C9.4249 17.626 9.43985 17.5303 9.42769 17.436C9.41554 17.3418 9.37679 17.253 9.31599 17.18L5.38399 12.46C5.33706 12.4037 5.27835 12.3585 5.21199 12.3274C5.14563 12.2963 5.07326 12.2802 4.99999 12.2802C4.92672 12.2802 4.85435 12.2963 4.78799 12.3274C4.72163 12.3585 4.66291 12.4037 4.61599 12.46L0.683989 17.18C0.623185 17.253 0.584437 17.3418 0.572284 17.436C0.560131 17.5303 0.575076 17.626 0.615368 17.7121C0.655659 17.7981 0.719631 17.8709 0.799791 17.9219C0.879951 17.9729 0.972982 18 1.06799 18V18Z" fill="#31EEE3"/>
<path fill-rule="evenodd" clip-rule="evenodd" d="M16 6C12.896 6 10.12 7.414 8.28599 9.636C8.20409 9.74215 8.10169 9.83074 7.98487 9.89652C7.86805 9.9623 7.73919 10.0039 7.60597 10.0189C7.47274 10.0339 7.33786 10.0219 7.20935 9.98371C7.08084 9.94552 6.96132 9.88187 6.8579 9.79656C6.75448 9.71125 6.66927 9.60601 6.60734 9.48711C6.5454 9.36821 6.50801 9.23806 6.49739 9.10442C6.48676 8.97077 6.50311 8.83636 6.54548 8.70916C6.58784 8.58196 6.65535 8.46458 6.74399 8.364C8.20836 6.59105 10.1512 5.27602 12.3413 4.57531C14.5315 3.8746 16.8768 3.8177 19.0983 4.41138C21.3199 5.00506 23.3242 6.22433 24.8728 7.92417C26.4214 9.62402 27.4492 11.7329 27.834 14H25.8C25.3382 11.7416 24.1107 9.71198 22.3251 8.25429C20.5394 6.79659 18.3051 6.00028 16 6V6ZM6.19999 18C6.57861 19.8492 7.47269 21.5536 8.77894 22.9163C10.0852 24.2789 11.7503 25.2442 13.5819 25.7006C15.4135 26.157 17.3369 26.0858 19.1298 25.4954C20.9227 24.905 22.5119 23.8194 23.714 22.364C23.7959 22.2579 23.8983 22.1693 24.0151 22.1035C24.1319 22.0377 24.2608 21.9961 24.394 21.9811C24.5272 21.9661 24.6621 21.9781 24.7906 22.0163C24.9191 22.0545 25.0387 22.1181 25.1421 22.2034C25.2455 22.2888 25.3307 22.394 25.3926 22.5129C25.4546 22.6318 25.492 22.7619 25.5026 22.8956C25.5132 23.0292 25.4969 23.1636 25.4545 23.2908C25.4121 23.418 25.3446 23.5354 25.256 23.636C23.7916 25.4089 21.8488 26.724 19.6587 27.4247C17.4685 28.1254 15.1232 28.1823 12.9016 27.5886C10.6801 26.9949 8.6758 25.7757 7.12716 24.0758C5.57853 22.376 4.55072 20.2671 4.16599 18H6.19999Z" fill="#31EEE3"/>
</svg>
