<svg width="32" height="32" viewBox="0 0 32 32" fill="none" xmlns="http://www.w3.org/2000/svg">
<path d="M13 2H19C19.2652 2 19.5196 2.10536 19.7071 2.29289C19.8946 2.48043 20 2.73478 20 3V5H12V3C12 2.73478 12.1054 2.48043 12.2929 2.29289C12.4804 2.10536 12.7348 2 13 2V2ZM22 5V3C22 2.20435 21.6839 1.44129 21.1213 0.87868C20.5587 0.31607 19.7956 0 19 0L13 0C12.2044 0 11.4413 0.31607 10.8787 0.87868C10.3161 1.44129 10 2.20435 10 3V5H5.012C5.00533 4.99994 4.99867 4.99994 4.992 5H3C2.73478 5 2.48043 5.10536 2.29289 5.29289C2.10536 5.48043 2 5.73478 2 6C2 6.26522 2.10536 6.51957 2.29289 6.70711C2.48043 6.89464 2.73478 7 3 7H4.076L5.782 28.32C5.86245 29.3224 6.31751 30.2577 7.05655 30.9397C7.79559 31.6216 8.76439 32.0002 9.77 32H22.23C23.2356 32.0002 24.2044 31.6216 24.9435 30.9397C25.6825 30.2577 26.1376 29.3224 26.218 28.32L27.924 7H29C29.2652 7 29.5196 6.89464 29.7071 6.70711C29.8946 6.51957 30 6.26522 30 6C30 5.73478 29.8946 5.48043 29.7071 5.29289C29.5196 5.10536 29.2652 5 29 5H27.01C27.0033 4.99994 26.9967 4.99994 26.99 5H22ZM25.916 7L24.224 28.16C24.1838 28.6612 23.9562 29.1289 23.5867 29.4698C23.2172 29.8108 22.7328 30.0001 22.23 30H9.77C9.26719 30.0001 8.7828 29.8108 8.41327 29.4698C8.04375 29.1289 7.81622 28.6612 7.776 28.16L6.084 7H25.916ZM10.942 9C11.2067 8.9847 11.4666 9.07513 11.6646 9.25139C11.8626 9.42766 11.9825 9.67534 11.998 9.94L12.998 26.94C13.0085 27.2016 12.916 27.4568 12.7404 27.6509C12.5648 27.8451 12.3201 27.9626 12.0588 27.9783C11.7975 27.994 11.5405 27.9067 11.3429 27.735C11.1453 27.5633 11.0229 27.3209 11.002 27.06L10 10.06C9.99188 9.92863 10.0098 9.79694 10.0527 9.6725C10.0955 9.54806 10.1626 9.4333 10.2499 9.33482C10.3372 9.23634 10.4432 9.15607 10.5616 9.09862C10.68 9.04116 10.8086 9.00765 10.94 9H10.942ZM21.058 9C21.1894 9.00765 21.318 9.04116 21.4364 9.09862C21.5548 9.15607 21.6608 9.23634 21.7481 9.33482C21.8354 9.4333 21.9025 9.54806 21.9453 9.6725C21.9882 9.79694 22.0061 9.92863 21.998 10.06L20.998 27.06C20.9927 27.1929 20.9609 27.3234 20.9045 27.4438C20.8481 27.5643 20.7683 27.6723 20.6696 27.7615C20.571 27.8507 20.4555 27.9194 20.3301 27.9634C20.2046 28.0075 20.0716 28.026 19.9388 28.0181C19.806 28.0101 19.6762 27.9757 19.5569 27.9169C19.4376 27.8582 19.3312 27.7762 19.244 27.6758C19.1567 27.5754 19.0904 27.4586 19.0489 27.3323C19.0073 27.2059 18.9914 27.0726 19.002 26.94L20.002 9.94C20.0175 9.67534 20.1374 9.42766 20.3354 9.25139C20.5334 9.07513 20.7933 8.9847 21.058 9V9ZM16 9C16.2652 9 16.5196 9.10536 16.7071 9.29289C16.8946 9.48043 17 9.73478 17 10V27C17 27.2652 16.8946 27.5196 16.7071 27.7071C16.5196 27.8946 16.2652 28 16 28C15.7348 28 15.4804 27.8946 15.2929 27.7071C15.1054 27.5196 15 27.2652 15 27V10C15 9.73478 15.1054 9.48043 15.2929 9.29289C15.4804 9.10536 15.7348 9 16 9V9Z" fill="#31EEE3"/>
</svg>
