<svg width="69" height="32" viewBox="0 0 69 32" fill="none" xmlns="http://www.w3.org/2000/svg">
<path fill-rule="evenodd" clip-rule="evenodd" d="M22.5895 25.4546C23.231 25.4546 23.7518 24.9208 23.7518 24.2631L23.7518 7.73721C23.7518 7.07951 23.231 6.54564 22.5895 6.54564L1.89575 6.54564C1.25414 6.54564 0.733341 7.07951 0.733341 7.73721L0.73334 24.2631C0.73334 24.9208 1.25414 25.4546 1.89575 25.4546L22.5895 25.4546ZM15.8688 22.589L15.8688 9.41125L4.46124 9.41125C4.01417 9.41125 3.65109 9.78329 3.65109 10.2416L3.65109 21.7587C3.65109 22.217 4.01417 22.589 4.46124 22.589L15.8688 22.589Z" fill="#31EEE3"/>
<path d="M16.7559 17.4326L16.7559 14.567L2.76391 14.567L2.76391 17.4326L16.7559 17.4326Z" fill="#31EEE3"/>
<path fill-rule="evenodd" clip-rule="evenodd" d="M67.0329 32C68.1185 32 69 31.0964 69 29.9835L69 2.01649C69 0.903597 68.1185 -3.85309e-08 67.0329 -8.59863e-08L17.8353 -2.23648e-06C16.7497 -2.28393e-06 15.8682 0.903594 15.8682 2.01648L15.8682 29.9835C15.8682 31.0964 16.7497 32 17.8353 32L67.0329 32ZM50.9478 16C50.9478 21.5303 46.5678 26.0202 41.1728 26.0202C35.7778 26.0202 31.3978 21.5303 31.3978 16C31.3978 10.4697 35.7778 5.9798 41.1728 5.9798C46.5678 5.9798 50.9478 10.4697 50.9478 16ZM64.349 16C64.349 17.9743 62.7853 19.5774 60.8592 19.5774C58.9332 19.5774 57.3695 17.9743 57.3695 16C57.3695 14.0257 58.9332 12.4226 60.8592 12.4226C62.7853 12.4226 64.349 14.0257 64.349 16Z" fill="#31EEE3"/>
<path d="M41.267 16.0851L47.0165 18.1622L47.0165 21.1668L34.8568 16.102L34.8568 12.928L38.188 14.3812L47.0077 10.8329L47.0077 13.8996L41.267 16.0851Z" fill="#31EEE3"/>
</svg>
